{
	"asset":{
		"generator":"Khronos glTF Blender I/O v3.5.30",
		"version":"2.0"
	},
	"scene":0,
	"scenes":[
		{
			"name":"Scene",
			"nodes":[
				6
			]
		}
	],
	"nodes":[
		{
			"name":"Bone"
		},
		{
			"name":"Bone.001",
			"rotation":[
				-0.7071067690849304,
				3.5736285042275995e-08,
				3.5736285042275995e-08,
				0.7071067690849304
			],
			"translation":[
				-1.0107746817311636e-07,
				-0.9999999403953552,
				-1
			]
		},
		{
			"name":"Bone.004",
			"rotation":[
				-8.94069742685133e-08,
				-2.4381105134807513e-08,
				2.4381103358450673e-08,
				1
			],
			"translation":[
				5.64313678251549e-15,
				2,
				1.6590932593691862e-14
			]
		},
		{
			"children":[
				2
			],
			"name":"Bone.002",
			"rotation":[
				-1,
				-4.623679927817648e-08,
				-4.623679927817648e-08,
				1.043081283569336e-07
			],
			"translation":[
				9.247360566178031e-08,
				-2,
				-1.1920928955078125e-07
			]
		},
		{
			"name":"Bone.003",
			"rotation":[
				0.7071069478988647,
				2.745400422554667e-07,
				8.174728116649987e-10,
				0.7071065902709961
			],
			"translation":[
				1.935511022566061e-07,
				-1.000000238418579,
				1
			]
		},
		{
			"mesh":0,
			"name":"Plane",
			"skin":0
		},
		{
			"children":[
				5,
				0,
				1,
				3,
				4
			],
			"name":"Armature",
			"rotation":[
				0,
				0,
				-0.7071068286895752,
				0.7071068286895752
			],
			"translation":[
				1,
				0,
				0
			]
		}
	],
	"animations":[
		{
			"channels":[
				{
					"sampler":0,
					"target":{
						"node":0,
						"path":"translation"
					}
				},
				{
					"sampler":1,
					"target":{
						"node":0,
						"path":"rotation"
					}
				},
				{
					"sampler":2,
					"target":{
						"node":0,
						"path":"scale"
					}
				},
				{
					"sampler":3,
					"target":{
						"node":1,
						"path":"translation"
					}
				},
				{
					"sampler":4,
					"target":{
						"node":1,
						"path":"rotation"
					}
				},
				{
					"sampler":5,
					"target":{
						"node":1,
						"path":"scale"
					}
				},
				{
					"sampler":6,
					"target":{
						"node":3,
						"path":"translation"
					}
				},
				{
					"sampler":7,
					"target":{
						"node":3,
						"path":"rotation"
					}
				},
				{
					"sampler":8,
					"target":{
						"node":3,
						"path":"scale"
					}
				},
				{
					"sampler":9,
					"target":{
						"node":2,
						"path":"translation"
					}
				},
				{
					"sampler":10,
					"target":{
						"node":2,
						"path":"rotation"
					}
				},
				{
					"sampler":11,
					"target":{
						"node":2,
						"path":"scale"
					}
				},
				{
					"sampler":12,
					"target":{
						"node":4,
						"path":"translation"
					}
				},
				{
					"sampler":13,
					"target":{
						"node":4,
						"path":"rotation"
					}
				},
				{
					"sampler":14,
					"target":{
						"node":4,
						"path":"scale"
					}
				}
			],
			"name":"ArmatureAction",
			"samplers":[
				{
					"input":7,
					"interpolation":"LINEAR",
					"output":8
				},
				{
					"input":7,
					"interpolation":"LINEAR",
					"output":9
				},
				{
					"input":7,
					"interpolation":"LINEAR",
					"output":10
				},
				{
					"input":7,
					"interpolation":"LINEAR",
					"output":11
				},
				{
					"input":7,
					"interpolation":"LINEAR",
					"output":12
				},
				{
					"input":7,
					"interpolation":"LINEAR",
					"output":13
				},
				{
					"input":7,
					"interpolation":"LINEAR",
					"output":14
				},
				{
					"input":7,
					"interpolation":"LINEAR",
					"output":15
				},
				{
					"input":7,
					"interpolation":"LINEAR",
					"output":16
				},
				{
					"input":7,
					"interpolation":"LINEAR",
					"output":17
				},
				{
					"input":7,
					"interpolation":"LINEAR",
					"output":18
				},
				{
					"input":7,
					"interpolation":"LINEAR",
					"output":19
				},
				{
					"input":7,
					"interpolation":"LINEAR",
					"output":20
				},
				{
					"input":7,
					"interpolation":"LINEAR",
					"output":21
				},
				{
					"input":7,
					"interpolation":"LINEAR",
					"output":22
				}
			]
		}
	],
	"materials":[
		{
			"doubleSided":true,
			"name":"Material.001",
			"pbrMetallicRoughness":{
				"baseColorFactor":[
					0.11042439192533493,
					0.8000000715255737,
					0,
					0.5433070659637451
				],
				"metallicFactor":0,
				"roughnessFactor":0.5
			}
		}
	],
	"meshes":[
		{
			"name":"Plane",
			"primitives":[
				{
					"attributes":{
						"POSITION":0,
						"TEXCOORD_0":1,
						"NORMAL":2,
						"JOINTS_0":3,
						"WEIGHTS_0":4
					},
					"indices":5,
					"material":0
				}
			]
		}
	],
	"skins":[
		{
			"inverseBindMatrices":6,
			"joints":[
				0,
				1,
				3,
				2,
				4
			],
			"name":"Armature"
		}
	],
	"accessors":[
		{
			"bufferView":0,
			"componentType":5126,
			"count":16,
			"max":[
				3,
				0,
				3
			],
			"min":[
				-5,
				0,
				-3
			],
			"type":"VEC3"
		},
		{
			"bufferView":1,
			"componentType":5126,
			"count":16,
			"type":"VEC2"
		},
		{
			"bufferView":2,
			"componentType":5126,
			"count":16,
			"type":"VEC3"
		},
		{
			"bufferView":3,
			"componentType":5121,
			"count":16,
			"type":"VEC4"
		},
		{
			"bufferView":4,
			"componentType":5126,
			"count":16,
			"type":"VEC4"
		},
		{
			"bufferView":5,
			"componentType":5123,
			"count":42,
			"type":"SCALAR"
		},
		{
			"bufferView":6,
			"componentType":5126,
			"count":5,
			"type":"MAT4"
		},
		{
			"bufferView":7,
			"componentType":5126,
			"count":100,
			"max":[
				4.166666666666667
			],
			"min":[
				0.041666666666666664
			],
			"type":"SCALAR"
		},
		{
			"bufferView":8,
			"componentType":5126,
			"count":100,
			"type":"VEC3"
		},
		{
			"bufferView":9,
			"componentType":5126,
			"count":100,
			"type":"VEC4"
		},
		{
			"bufferView":10,
			"componentType":5126,
			"count":100,
			"type":"VEC3"
		},
		{
			"bufferView":11,
			"componentType":5126,
			"count":100,
			"type":"VEC3"
		},
		{
			"bufferView":12,
			"componentType":5126,
			"count":100,
			"type":"VEC4"
		},
		{
			"bufferView":13,
			"componentType":5126,
			"count":100,
			"type":"VEC3"
		},
		{
			"bufferView":14,
			"componentType":5126,
			"count":100,
			"type":"VEC3"
		},
		{
			"bufferView":15,
			"componentType":5126,
			"count":100,
			"type":"VEC4"
		},
		{
			"bufferView":16,
			"componentType":5126,
			"count":100,
			"type":"VEC3"
		},
		{
			"bufferView":17,
			"componentType":5126,
			"count":100,
			"type":"VEC3"
		},
		{
			"bufferView":18,
			"componentType":5126,
			"count":100,
			"type":"VEC4"
		},
		{
			"bufferView":19,
			"componentType":5126,
			"count":100,
			"type":"VEC3"
		},
		{
			"bufferView":20,
			"componentType":5126,
			"count":100,
			"type":"VEC3"
		},
		{
			"bufferView":21,
			"componentType":5126,
			"count":100,
			"type":"VEC4"
		},
		{
			"bufferView":22,
			"componentType":5126,
			"count":100,
			"type":"VEC3"
		}
	],
	"bufferViews":[
		{
			"buffer":0,
			"byteLength":192,
			"byteOffset":0,
			"target":34962
		},
		{
			"buffer":0,
			"byteLength":128,
			"byteOffset":192,
			"target":34962
		},
		{
			"buffer":0,
			"byteLength":192,
			"byteOffset":320,
			"target":34962
		},
		{
			"buffer":0,
			"byteLength":64,
			"byteOffset":512,
			"target":34962
		},
		{
			"buffer":0,
			"byteLength":256,
			"byteOffset":576,
			"target":34962
		},
		{
			"buffer":0,
			"byteLength":84,
			"byteOffset":832,
			"target":34963
		},
		{
			"buffer":0,
			"byteLength":320,
			"byteOffset":916
		},
		{
			"buffer":0,
			"byteLength":400,
			"byteOffset":1236
		},
		{
			"buffer":0,
			"byteLength":1200,
			"byteOffset":1636
		},
		{
			"buffer":0,
			"byteLength":1600,
			"byteOffset":2836
		},
		{
			"buffer":0,
			"byteLength":1200,
			"byteOffset":4436
		},
		{
			"buffer":0,
			"byteLength":1200,
			"byteOffset":5636
		},
		{
			"buffer":0,
			"byteLength":1600,
			"byteOffset":6836
		},
		{
			"buffer":0,
			"byteLength":1200,
			"byteOffset":8436
		},
		{
			"buffer":0,
			"byteLength":1200,
			"byteOffset":9636
		},
		{
			"buffer":0,
			"byteLength":1600,
			"byteOffset":10836
		},
		{
			"buffer":0,
			"byteLength":1200,
			"byteOffset":12436
		},
		{
			"buffer":0,
			"byteLength":1200,
			"byteOffset":13636
		},
		{
			"buffer":0,
			"byteLength":1600,
			"byteOffset":14836
		},
		{
			"buffer":0,
			"byteLength":1200,
			"byteOffset":16436
		},
		{
			"buffer":0,
			"byteLength":1200,
			"byteOffset":17636
		},
		{
			"buffer":0,
			"byteLength":1600,
			"byteOffset":18836
		},
		{
			"buffer":0,
			"byteLength":1200,
			"byteOffset":20436
		}
	],
	"buffers":[
		{
			"byteLength":21636,
			"uri":"cube_fold2.bin"
		}
	]
}
