{
	"asset":{
		"generator":"Khronos glTF Blender I/O v3.5.30",
		"version":"2.0"
	},
	"scene":0,
	"scenes":[
		{
			"name":"Scene",
			"nodes":[
				10
			]
		}
	],
	"nodes":[
		{
			"name":"Bone.004",
			"rotation":[
				-4.776713662911763e-16,
				2.1855694143368964e-08,
				2.1855694143368964e-08,
				1
			],
			"translation":[
				0,
				1,
				0
			]
		},
		{
			"children":[
				0
			],
			"name":"Bone"
		},
		{
			"name":"Bone.003",
			"rotation":[
				-8.940696716308594e-08,
				0,
				2.1855692367012125e-08,
				1
			],
			"translation":[
				2.365331034878161e-16,
				1,
				1.910685465164705e-15
			]
		},
		{
			"children":[
				2
			],
			"name":"Bone.001",
			"rotation":[
				-0.7071066498756409,
				-1.545430627913902e-08,
				-1.545430627913902e-08,
				0.70710688829422
			],
			"translation":[
				4.371138473402425e-08,
				-0.9999999403953552,
				-1
			]
		},
		{
			"name":"Bone.007",
			"rotation":[
				-3.9528436614141506e-22,
				-8.881784197001252e-15,
				7.105427357601002e-15,
				1
			],
			"translation":[
				-8.526987506384844e-15,
				1,
				1.910685253406468e-15
			]
		},
		{
			"children":[
				4
			],
			"name":"Bone.005",
			"rotation":[
				-1.1920928955078125e-07,
				-2.1855685261584767e-08,
				2.1855683485227928e-08,
				1
			],
			"translation":[
				7.815030903229186e-15,
				1,
				3.821371353845884e-15
			]
		},
		{
			"name":"Bone.008",
			"translation":[
				0,
				1,
				4.884981308350689e-15
			]
		},
		{
			"children":[
				6
			],
			"name":"Bone.006",
			"rotation":[
				-0.70710688829422,
				-8.432166076488556e-09,
				-5.338508302088485e-08,
				0.7071066498756409
			],
			"translation":[
				7.815030903229186e-15,
				1,
				3.821371353845884e-15
			]
		},
		{
			"children":[
				5,
				7
			],
			"name":"Bone.002",
			"rotation":[
				-1,
				-4.371138118131057e-08,
				-4.371138118131057e-08,
				1.1920928955078125e-07
			],
			"translation":[
				8.742277657347586e-08,
				-2,
				-1.1920928955078125e-07
			]
		},
		{
			"mesh":0,
			"name":"Plane",
			"skin":0
		},
		{
			"children":[
				9,
				1,
				3,
				8
			],
			"name":"Armature",
			"rotation":[
				0,
				0,
				-0.7071068286895752,
				0.7071068286895752
			],
			"translation":[
				1,
				0,
				0
			]
		}
	],
	"animations":[
		{
			"channels":[
				{
					"sampler":0,
					"target":{
						"node":1,
						"path":"translation"
					}
				},
				{
					"sampler":1,
					"target":{
						"node":1,
						"path":"rotation"
					}
				},
				{
					"sampler":2,
					"target":{
						"node":1,
						"path":"scale"
					}
				},
				{
					"sampler":3,
					"target":{
						"node":0,
						"path":"translation"
					}
				},
				{
					"sampler":4,
					"target":{
						"node":0,
						"path":"rotation"
					}
				},
				{
					"sampler":5,
					"target":{
						"node":0,
						"path":"scale"
					}
				},
				{
					"sampler":6,
					"target":{
						"node":3,
						"path":"translation"
					}
				},
				{
					"sampler":7,
					"target":{
						"node":3,
						"path":"rotation"
					}
				},
				{
					"sampler":8,
					"target":{
						"node":3,
						"path":"scale"
					}
				},
				{
					"sampler":9,
					"target":{
						"node":2,
						"path":"translation"
					}
				},
				{
					"sampler":10,
					"target":{
						"node":2,
						"path":"rotation"
					}
				},
				{
					"sampler":11,
					"target":{
						"node":2,
						"path":"scale"
					}
				},
				{
					"sampler":12,
					"target":{
						"node":8,
						"path":"translation"
					}
				},
				{
					"sampler":13,
					"target":{
						"node":8,
						"path":"rotation"
					}
				},
				{
					"sampler":14,
					"target":{
						"node":8,
						"path":"scale"
					}
				},
				{
					"sampler":15,
					"target":{
						"node":5,
						"path":"translation"
					}
				},
				{
					"sampler":16,
					"target":{
						"node":5,
						"path":"rotation"
					}
				},
				{
					"sampler":17,
					"target":{
						"node":5,
						"path":"scale"
					}
				},
				{
					"sampler":18,
					"target":{
						"node":4,
						"path":"translation"
					}
				},
				{
					"sampler":19,
					"target":{
						"node":4,
						"path":"rotation"
					}
				},
				{
					"sampler":20,
					"target":{
						"node":4,
						"path":"scale"
					}
				},
				{
					"sampler":21,
					"target":{
						"node":7,
						"path":"translation"
					}
				},
				{
					"sampler":22,
					"target":{
						"node":7,
						"path":"rotation"
					}
				},
				{
					"sampler":23,
					"target":{
						"node":7,
						"path":"scale"
					}
				},
				{
					"sampler":24,
					"target":{
						"node":6,
						"path":"translation"
					}
				},
				{
					"sampler":25,
					"target":{
						"node":6,
						"path":"rotation"
					}
				},
				{
					"sampler":26,
					"target":{
						"node":6,
						"path":"scale"
					}
				}
			],
			"name":"ArmatureAction",
			"samplers":[
				{
					"input":7,
					"interpolation":"LINEAR",
					"output":8
				},
				{
					"input":7,
					"interpolation":"LINEAR",
					"output":9
				},
				{
					"input":7,
					"interpolation":"LINEAR",
					"output":10
				},
				{
					"input":7,
					"interpolation":"LINEAR",
					"output":11
				},
				{
					"input":7,
					"interpolation":"LINEAR",
					"output":12
				},
				{
					"input":7,
					"interpolation":"LINEAR",
					"output":13
				},
				{
					"input":7,
					"interpolation":"LINEAR",
					"output":14
				},
				{
					"input":7,
					"interpolation":"LINEAR",
					"output":15
				},
				{
					"input":7,
					"interpolation":"LINEAR",
					"output":16
				},
				{
					"input":7,
					"interpolation":"LINEAR",
					"output":17
				},
				{
					"input":7,
					"interpolation":"LINEAR",
					"output":18
				},
				{
					"input":7,
					"interpolation":"LINEAR",
					"output":19
				},
				{
					"input":7,
					"interpolation":"LINEAR",
					"output":20
				},
				{
					"input":7,
					"interpolation":"LINEAR",
					"output":21
				},
				{
					"input":7,
					"interpolation":"LINEAR",
					"output":22
				},
				{
					"input":7,
					"interpolation":"LINEAR",
					"output":23
				},
				{
					"input":7,
					"interpolation":"LINEAR",
					"output":24
				},
				{
					"input":7,
					"interpolation":"LINEAR",
					"output":25
				},
				{
					"input":7,
					"interpolation":"LINEAR",
					"output":26
				},
				{
					"input":7,
					"interpolation":"LINEAR",
					"output":27
				},
				{
					"input":7,
					"interpolation":"LINEAR",
					"output":28
				},
				{
					"input":7,
					"interpolation":"LINEAR",
					"output":29
				},
				{
					"input":7,
					"interpolation":"LINEAR",
					"output":30
				},
				{
					"input":7,
					"interpolation":"LINEAR",
					"output":31
				},
				{
					"input":7,
					"interpolation":"LINEAR",
					"output":32
				},
				{
					"input":7,
					"interpolation":"LINEAR",
					"output":33
				},
				{
					"input":7,
					"interpolation":"LINEAR",
					"output":34
				}
			]
		}
	],
	"materials":[
		{
			"alphaMode":"BLEND",
			"doubleSided":true,
			"emissiveFactor":[
				1,
				1,
				1
			],
			"name":"Material.001",
			"pbrMetallicRoughness":{
				"baseColorFactor":[
					0,
					0,
					0,
					1
				]
			}
		}
	],
	"meshes":[
		{
			"name":"Plane.002",
			"primitives":[
				{
					"attributes":{
						"POSITION":0,
						"TEXCOORD_0":1,
						"NORMAL":2,
						"JOINTS_0":3,
						"WEIGHTS_0":4
					},
					"indices":5,
					"material":0
				}
			]
		}
	],
	"skins":[
		{
			"inverseBindMatrices":6,
			"joints":[
				1,
				0,
				3,
				2,
				8,
				5,
				4,
				7,
				6
			],
			"name":"Armature"
		}
	],
	"accessors":[
		{
			"bufferView":0,
			"componentType":5126,
			"count":20,
			"max":[
				3,
				0,
				3
			],
			"min":[
				-5,
				0,
				-3
			],
			"type":"VEC3"
		},
		{
			"bufferView":1,
			"componentType":5126,
			"count":20,
			"type":"VEC2"
		},
		{
			"bufferView":2,
			"componentType":5126,
			"count":20,
			"type":"VEC3"
		},
		{
			"bufferView":3,
			"componentType":5121,
			"count":20,
			"type":"VEC4"
		},
		{
			"bufferView":4,
			"componentType":5126,
			"count":20,
			"type":"VEC4"
		},
		{
			"bufferView":5,
			"componentType":5123,
			"count":57,
			"type":"SCALAR"
		},
		{
			"bufferView":6,
			"componentType":5126,
			"count":9,
			"type":"MAT4"
		},
		{
			"bufferView":7,
			"componentType":5126,
			"count":99,
			"max":[
				4.166666666666667
			],
			"min":[
				0.08333333333333333
			],
			"type":"SCALAR"
		},
		{
			"bufferView":8,
			"componentType":5126,
			"count":99,
			"type":"VEC3"
		},
		{
			"bufferView":9,
			"componentType":5126,
			"count":99,
			"type":"VEC4"
		},
		{
			"bufferView":10,
			"componentType":5126,
			"count":99,
			"type":"VEC3"
		},
		{
			"bufferView":11,
			"componentType":5126,
			"count":99,
			"type":"VEC3"
		},
		{
			"bufferView":12,
			"componentType":5126,
			"count":99,
			"type":"VEC4"
		},
		{
			"bufferView":13,
			"componentType":5126,
			"count":99,
			"type":"VEC3"
		},
		{
			"bufferView":14,
			"componentType":5126,
			"count":99,
			"type":"VEC3"
		},
		{
			"bufferView":15,
			"componentType":5126,
			"count":99,
			"type":"VEC4"
		},
		{
			"bufferView":16,
			"componentType":5126,
			"count":99,
			"type":"VEC3"
		},
		{
			"bufferView":17,
			"componentType":5126,
			"count":99,
			"type":"VEC3"
		},
		{
			"bufferView":18,
			"componentType":5126,
			"count":99,
			"type":"VEC4"
		},
		{
			"bufferView":19,
			"componentType":5126,
			"count":99,
			"type":"VEC3"
		},
		{
			"bufferView":20,
			"componentType":5126,
			"count":99,
			"type":"VEC3"
		},
		{
			"bufferView":21,
			"componentType":5126,
			"count":99,
			"type":"VEC4"
		},
		{
			"bufferView":22,
			"componentType":5126,
			"count":99,
			"type":"VEC3"
		},
		{
			"bufferView":23,
			"componentType":5126,
			"count":99,
			"type":"VEC3"
		},
		{
			"bufferView":24,
			"componentType":5126,
			"count":99,
			"type":"VEC4"
		},
		{
			"bufferView":25,
			"componentType":5126,
			"count":99,
			"type":"VEC3"
		},
		{
			"bufferView":26,
			"componentType":5126,
			"count":99,
			"type":"VEC3"
		},
		{
			"bufferView":27,
			"componentType":5126,
			"count":99,
			"type":"VEC4"
		},
		{
			"bufferView":28,
			"componentType":5126,
			"count":99,
			"type":"VEC3"
		},
		{
			"bufferView":29,
			"componentType":5126,
			"count":99,
			"type":"VEC3"
		},
		{
			"bufferView":30,
			"componentType":5126,
			"count":99,
			"type":"VEC4"
		},
		{
			"bufferView":31,
			"componentType":5126,
			"count":99,
			"type":"VEC3"
		},
		{
			"bufferView":32,
			"componentType":5126,
			"count":99,
			"type":"VEC3"
		},
		{
			"bufferView":33,
			"componentType":5126,
			"count":99,
			"type":"VEC4"
		},
		{
			"bufferView":34,
			"componentType":5126,
			"count":99,
			"type":"VEC3"
		}
	],
	"bufferViews":[
		{
			"buffer":0,
			"byteLength":240,
			"byteOffset":0,
			"target":34962
		},
		{
			"buffer":0,
			"byteLength":160,
			"byteOffset":240,
			"target":34962
		},
		{
			"buffer":0,
			"byteLength":240,
			"byteOffset":400,
			"target":34962
		},
		{
			"buffer":0,
			"byteLength":80,
			"byteOffset":640,
			"target":34962
		},
		{
			"buffer":0,
			"byteLength":320,
			"byteOffset":720,
			"target":34962
		},
		{
			"buffer":0,
			"byteLength":114,
			"byteOffset":1040,
			"target":34963
		},
		{
			"buffer":0,
			"byteLength":576,
			"byteOffset":1156
		},
		{
			"buffer":0,
			"byteLength":396,
			"byteOffset":1732
		},
		{
			"buffer":0,
			"byteLength":1188,
			"byteOffset":2128
		},
		{
			"buffer":0,
			"byteLength":1584,
			"byteOffset":3316
		},
		{
			"buffer":0,
			"byteLength":1188,
			"byteOffset":4900
		},
		{
			"buffer":0,
			"byteLength":1188,
			"byteOffset":6088
		},
		{
			"buffer":0,
			"byteLength":1584,
			"byteOffset":7276
		},
		{
			"buffer":0,
			"byteLength":1188,
			"byteOffset":8860
		},
		{
			"buffer":0,
			"byteLength":1188,
			"byteOffset":10048
		},
		{
			"buffer":0,
			"byteLength":1584,
			"byteOffset":11236
		},
		{
			"buffer":0,
			"byteLength":1188,
			"byteOffset":12820
		},
		{
			"buffer":0,
			"byteLength":1188,
			"byteOffset":14008
		},
		{
			"buffer":0,
			"byteLength":1584,
			"byteOffset":15196
		},
		{
			"buffer":0,
			"byteLength":1188,
			"byteOffset":16780
		},
		{
			"buffer":0,
			"byteLength":1188,
			"byteOffset":17968
		},
		{
			"buffer":0,
			"byteLength":1584,
			"byteOffset":19156
		},
		{
			"buffer":0,
			"byteLength":1188,
			"byteOffset":20740
		},
		{
			"buffer":0,
			"byteLength":1188,
			"byteOffset":21928
		},
		{
			"buffer":0,
			"byteLength":1584,
			"byteOffset":23116
		},
		{
			"buffer":0,
			"byteLength":1188,
			"byteOffset":24700
		},
		{
			"buffer":0,
			"byteLength":1188,
			"byteOffset":25888
		},
		{
			"buffer":0,
			"byteLength":1584,
			"byteOffset":27076
		},
		{
			"buffer":0,
			"byteLength":1188,
			"byteOffset":28660
		},
		{
			"buffer":0,
			"byteLength":1188,
			"byteOffset":29848
		},
		{
			"buffer":0,
			"byteLength":1584,
			"byteOffset":31036
		},
		{
			"buffer":0,
			"byteLength":1188,
			"byteOffset":32620
		},
		{
			"buffer":0,
			"byteLength":1188,
			"byteOffset":33808
		},
		{
			"buffer":0,
			"byteLength":1584,
			"byteOffset":34996
		},
		{
			"buffer":0,
			"byteLength":1188,
			"byteOffset":36580
		}
	],
	"buffers":[
		{
			"byteLength":37768,
			"uri":"cube_fold.bin"
		}
	]
}
