{
	"asset":{
		"generator":"Khronos glTF Blender I/O v3.5.30",
		"version":"2.0"
	},
	"scene":0,
	"scenes":[
		{
			"name":"Scene",
			"nodes":[
				6
			]
		}
	],
	"nodes":[
		{
			"name":"Bone"
		},
		{
			"name":"Bone.001",
			"rotation":[
				-0.7071067690849304,
				-1.5454309831852697e-08,
				-1.5454309831852697e-08,
				0.7071067690849304
			],
			"translation":[
				4.371138473402425e-08,
				-0.9999999403953552,
				-1
			]
		},
		{
			"name":"Bone.004",
			"rotation":[
				-8.94069742685133e-08,
				-2.1855683485227928e-08,
				2.185568170887109e-08,
				1
			],
			"translation":[
				-2.6065711004538694e-15,
				2,
				1.474816667716098e-14
			]
		},
		{
			"children":[
				2
			],
			"name":"Bone.002",
			"rotation":[
				-1,
				-4.371138118131057e-08,
				-4.371138118131057e-08,
				1.043081283569336e-07
			],
			"translation":[
				8.742277657347586e-08,
				-2,
				-1.1920928955078125e-07
			]
		},
		{
			"name":"Bone.003",
			"rotation":[
				0.7071069478988647,
				8.429368136830817e-08,
				2.2476465133536294e-08,
				0.7071065902709961
			],
			"translation":[
				4.3711395392165286e-08,
				-1.000000238418579,
				1
			]
		},
		{
			"mesh":0,
			"name":"Plane",
			"skin":0
		},
		{
			"children":[
				5,
				0,
				1,
				3,
				4
			],
			"name":"Armature",
			"rotation":[
				0,
				0,
				-0.7071068286895752,
				0.7071068286895752
			],
			"translation":[
				1,
				0,
				0
			]
		}
	],
	"animations":[
		{
			"channels":[
				{
					"sampler":0,
					"target":{
						"node":0,
						"path":"translation"
					}
				},
				{
					"sampler":1,
					"target":{
						"node":0,
						"path":"rotation"
					}
				},
				{
					"sampler":2,
					"target":{
						"node":0,
						"path":"scale"
					}
				},
				{
					"sampler":3,
					"target":{
						"node":1,
						"path":"translation"
					}
				},
				{
					"sampler":4,
					"target":{
						"node":1,
						"path":"rotation"
					}
				},
				{
					"sampler":5,
					"target":{
						"node":1,
						"path":"scale"
					}
				},
				{
					"sampler":6,
					"target":{
						"node":3,
						"path":"translation"
					}
				},
				{
					"sampler":7,
					"target":{
						"node":3,
						"path":"rotation"
					}
				},
				{
					"sampler":8,
					"target":{
						"node":3,
						"path":"scale"
					}
				},
				{
					"sampler":9,
					"target":{
						"node":2,
						"path":"translation"
					}
				},
				{
					"sampler":10,
					"target":{
						"node":2,
						"path":"rotation"
					}
				},
				{
					"sampler":11,
					"target":{
						"node":2,
						"path":"scale"
					}
				},
				{
					"sampler":12,
					"target":{
						"node":4,
						"path":"translation"
					}
				},
				{
					"sampler":13,
					"target":{
						"node":4,
						"path":"rotation"
					}
				},
				{
					"sampler":14,
					"target":{
						"node":4,
						"path":"scale"
					}
				}
			],
			"name":"ArmatureAction.001",
			"samplers":[
				{
					"input":7,
					"interpolation":"LINEAR",
					"output":8
				},
				{
					"input":7,
					"interpolation":"LINEAR",
					"output":9
				},
				{
					"input":7,
					"interpolation":"LINEAR",
					"output":10
				},
				{
					"input":7,
					"interpolation":"LINEAR",
					"output":11
				},
				{
					"input":7,
					"interpolation":"LINEAR",
					"output":12
				},
				{
					"input":7,
					"interpolation":"LINEAR",
					"output":13
				},
				{
					"input":7,
					"interpolation":"LINEAR",
					"output":14
				},
				{
					"input":7,
					"interpolation":"LINEAR",
					"output":15
				},
				{
					"input":7,
					"interpolation":"LINEAR",
					"output":16
				},
				{
					"input":7,
					"interpolation":"LINEAR",
					"output":17
				},
				{
					"input":7,
					"interpolation":"LINEAR",
					"output":18
				},
				{
					"input":7,
					"interpolation":"LINEAR",
					"output":19
				},
				{
					"input":7,
					"interpolation":"LINEAR",
					"output":20
				},
				{
					"input":7,
					"interpolation":"LINEAR",
					"output":21
				},
				{
					"input":7,
					"interpolation":"LINEAR",
					"output":22
				}
			]
		}
	],
	"materials":[
		{
			"doubleSided":true,
			"name":"Material.001",
			"pbrMetallicRoughness":{
				"baseColorFactor":[
					0.03383124992251396,
					0.07980974018573761,
					0.8000000715255737,
					1
				],
				"metallicFactor":0,
				"roughnessFactor":0.5
			}
		}
	],
	"meshes":[
		{
			"name":"Plane.001",
			"primitives":[
				{
					"attributes":{
						"POSITION":0,
						"TEXCOORD_0":1,
						"NORMAL":2,
						"JOINTS_0":3,
						"WEIGHTS_0":4
					},
					"indices":5,
					"material":0
				}
			]
		}
	],
	"skins":[
		{
			"inverseBindMatrices":6,
			"joints":[
				0,
				1,
				3,
				2,
				4
			],
			"name":"Armature"
		}
	],
	"accessors":[
		{
			"bufferView":0,
			"componentType":5126,
			"count":14,
			"max":[
				3,
				0,
				3
			],
			"min":[
				-5,
				0,
				-3
			],
			"type":"VEC3"
		},
		{
			"bufferView":1,
			"componentType":5126,
			"count":14,
			"type":"VEC2"
		},
		{
			"bufferView":2,
			"componentType":5126,
			"count":14,
			"type":"VEC3"
		},
		{
			"bufferView":3,
			"componentType":5121,
			"count":14,
			"type":"VEC4"
		},
		{
			"bufferView":4,
			"componentType":5126,
			"count":14,
			"type":"VEC4"
		},
		{
			"bufferView":5,
			"componentType":5123,
			"count":36,
			"type":"SCALAR"
		},
		{
			"bufferView":6,
			"componentType":5126,
			"count":5,
			"type":"MAT4"
		},
		{
			"bufferView":7,
			"componentType":5126,
			"count":100,
			"max":[
				4.166666666666667
			],
			"min":[
				0.041666666666666664
			],
			"type":"SCALAR"
		},
		{
			"bufferView":8,
			"componentType":5126,
			"count":100,
			"type":"VEC3"
		},
		{
			"bufferView":9,
			"componentType":5126,
			"count":100,
			"type":"VEC4"
		},
		{
			"bufferView":10,
			"componentType":5126,
			"count":100,
			"type":"VEC3"
		},
		{
			"bufferView":11,
			"componentType":5126,
			"count":100,
			"type":"VEC3"
		},
		{
			"bufferView":12,
			"componentType":5126,
			"count":100,
			"type":"VEC4"
		},
		{
			"bufferView":13,
			"componentType":5126,
			"count":100,
			"type":"VEC3"
		},
		{
			"bufferView":14,
			"componentType":5126,
			"count":100,
			"type":"VEC3"
		},
		{
			"bufferView":15,
			"componentType":5126,
			"count":100,
			"type":"VEC4"
		},
		{
			"bufferView":16,
			"componentType":5126,
			"count":100,
			"type":"VEC3"
		},
		{
			"bufferView":17,
			"componentType":5126,
			"count":100,
			"type":"VEC3"
		},
		{
			"bufferView":18,
			"componentType":5126,
			"count":100,
			"type":"VEC4"
		},
		{
			"bufferView":19,
			"componentType":5126,
			"count":100,
			"type":"VEC3"
		},
		{
			"bufferView":20,
			"componentType":5126,
			"count":100,
			"type":"VEC3"
		},
		{
			"bufferView":21,
			"componentType":5126,
			"count":100,
			"type":"VEC4"
		},
		{
			"bufferView":22,
			"componentType":5126,
			"count":100,
			"type":"VEC3"
		}
	],
	"bufferViews":[
		{
			"buffer":0,
			"byteLength":168,
			"byteOffset":0,
			"target":34962
		},
		{
			"buffer":0,
			"byteLength":112,
			"byteOffset":168,
			"target":34962
		},
		{
			"buffer":0,
			"byteLength":168,
			"byteOffset":280,
			"target":34962
		},
		{
			"buffer":0,
			"byteLength":56,
			"byteOffset":448,
			"target":34962
		},
		{
			"buffer":0,
			"byteLength":224,
			"byteOffset":504,
			"target":34962
		},
		{
			"buffer":0,
			"byteLength":72,
			"byteOffset":728,
			"target":34963
		},
		{
			"buffer":0,
			"byteLength":320,
			"byteOffset":800
		},
		{
			"buffer":0,
			"byteLength":400,
			"byteOffset":1120
		},
		{
			"buffer":0,
			"byteLength":1200,
			"byteOffset":1520
		},
		{
			"buffer":0,
			"byteLength":1600,
			"byteOffset":2720
		},
		{
			"buffer":0,
			"byteLength":1200,
			"byteOffset":4320
		},
		{
			"buffer":0,
			"byteLength":1200,
			"byteOffset":5520
		},
		{
			"buffer":0,
			"byteLength":1600,
			"byteOffset":6720
		},
		{
			"buffer":0,
			"byteLength":1200,
			"byteOffset":8320
		},
		{
			"buffer":0,
			"byteLength":1200,
			"byteOffset":9520
		},
		{
			"buffer":0,
			"byteLength":1600,
			"byteOffset":10720
		},
		{
			"buffer":0,
			"byteLength":1200,
			"byteOffset":12320
		},
		{
			"buffer":0,
			"byteLength":1200,
			"byteOffset":13520
		},
		{
			"buffer":0,
			"byteLength":1600,
			"byteOffset":14720
		},
		{
			"buffer":0,
			"byteLength":1200,
			"byteOffset":16320
		},
		{
			"buffer":0,
			"byteLength":1200,
			"byteOffset":17520
		},
		{
			"buffer":0,
			"byteLength":1600,
			"byteOffset":18720
		},
		{
			"buffer":0,
			"byteLength":1200,
			"byteOffset":20320
		}
	],
	"buffers":[
		{
			"byteLength":21520,
			"uri":"1_cube_fold_typeA.bin"
		}
	]
}
