{
	"asset":{
		"generator":"Khronos glTF Blender I/O v3.5.30",
		"version":"2.0"
	},
	"scene":0,
	"scenes":[
		{
			"name":"Scene",
			"nodes":[
				9
			]
		}
	],
	"nodes":[
		{
			"name":"Bone.002",
			"translation":[
				-7.105427357601002e-15,
				1,
				-5.773159728050814e-15
			]
		},
		{
			"children":[
				0
			],
			"name":"Bone.001",
			"rotation":[
				0.7071067690849304,
				-3.0908616110991716e-08,
				-3.0908616110991716e-08,
				0.7071067690849304
			],
			"translation":[
				0,
				1,
				0
			]
		},
		{
			"children":[
				1
			],
			"name":"Bone"
		},
		{
			"name":"Bone.005",
			"rotation":[
				-1.1083486465920012e-15,
				-1.4901161193847656e-08,
				-1.5405285732036683e-15,
				1
			],
			"translation":[
				2.176344970905575e-08,
				1,
				-2.16963567112316e-08
			]
		},
		{
			"children":[
				3
			],
			"name":"Bone.004",
			"rotation":[
				0.3520609736442566,
				-3.1610131401293984e-08,
				0.6132315397262573,
				0.70710688829422
			],
			"scale":[
				0.9999999403953552,
				1,
				1
			],
			"translation":[
				-1.2434497875801753e-14,
				1,
				1.4210854715202004e-14
			]
		},
		{
			"name":"Bone.007",
			"rotation":[
				-8.148439164894477e-15,
				-1.4901161193847656e-08,
				-1.1488097164164446e-15,
				1
			],
			"translation":[
				-5.976278228802395e-15,
				1,
				-5.98436231125099e-15
			]
		},
		{
			"children":[
				5
			],
			"name":"Bone.006",
			"rotation":[
				-5.654374746200119e-08,
				-1.4901160305669237e-08,
				-5.459311580580106e-08,
				1
			],
			"translation":[
				-1.2434497875801753e-14,
				1,
				1.4210854715202004e-14
			]
		},
		{
			"children":[
				4,
				6
			],
			"name":"Bone.003",
			"rotation":[
				-0.8654159307479858,
				2.052604776685979e-15,
				-0.5010541677474976,
				7.805642354696829e-08
			],
			"translation":[
				8.742277657347586e-08,
				-2,
				-1.5099580252808664e-07
			]
		},
		{
			"mesh":0,
			"name":"Plane",
			"skin":0
		},
		{
			"children":[
				8,
				2,
				7
			],
			"name":"Armature",
			"rotation":[
				0,
				0,
				-0.7071068286895752,
				0.7071068286895752
			],
			"translation":[
				1,
				0,
				0
			]
		}
	],
	"animations":[
		{
			"channels":[
				{
					"sampler":0,
					"target":{
						"node":2,
						"path":"translation"
					}
				},
				{
					"sampler":1,
					"target":{
						"node":2,
						"path":"rotation"
					}
				},
				{
					"sampler":2,
					"target":{
						"node":2,
						"path":"scale"
					}
				},
				{
					"sampler":3,
					"target":{
						"node":1,
						"path":"translation"
					}
				},
				{
					"sampler":4,
					"target":{
						"node":1,
						"path":"rotation"
					}
				},
				{
					"sampler":5,
					"target":{
						"node":1,
						"path":"scale"
					}
				},
				{
					"sampler":6,
					"target":{
						"node":0,
						"path":"translation"
					}
				},
				{
					"sampler":7,
					"target":{
						"node":0,
						"path":"rotation"
					}
				},
				{
					"sampler":8,
					"target":{
						"node":0,
						"path":"scale"
					}
				},
				{
					"sampler":9,
					"target":{
						"node":7,
						"path":"translation"
					}
				},
				{
					"sampler":10,
					"target":{
						"node":7,
						"path":"rotation"
					}
				},
				{
					"sampler":11,
					"target":{
						"node":7,
						"path":"scale"
					}
				},
				{
					"sampler":12,
					"target":{
						"node":4,
						"path":"translation"
					}
				},
				{
					"sampler":13,
					"target":{
						"node":4,
						"path":"rotation"
					}
				},
				{
					"sampler":14,
					"target":{
						"node":4,
						"path":"scale"
					}
				},
				{
					"sampler":15,
					"target":{
						"node":3,
						"path":"translation"
					}
				},
				{
					"sampler":16,
					"target":{
						"node":3,
						"path":"rotation"
					}
				},
				{
					"sampler":17,
					"target":{
						"node":3,
						"path":"scale"
					}
				},
				{
					"sampler":18,
					"target":{
						"node":6,
						"path":"translation"
					}
				},
				{
					"sampler":19,
					"target":{
						"node":6,
						"path":"rotation"
					}
				},
				{
					"sampler":20,
					"target":{
						"node":6,
						"path":"scale"
					}
				},
				{
					"sampler":21,
					"target":{
						"node":5,
						"path":"translation"
					}
				},
				{
					"sampler":22,
					"target":{
						"node":5,
						"path":"rotation"
					}
				},
				{
					"sampler":23,
					"target":{
						"node":5,
						"path":"scale"
					}
				}
			],
			"name":"ArmatureAction",
			"samplers":[
				{
					"input":7,
					"interpolation":"LINEAR",
					"output":8
				},
				{
					"input":7,
					"interpolation":"LINEAR",
					"output":9
				},
				{
					"input":7,
					"interpolation":"LINEAR",
					"output":10
				},
				{
					"input":7,
					"interpolation":"LINEAR",
					"output":11
				},
				{
					"input":7,
					"interpolation":"LINEAR",
					"output":12
				},
				{
					"input":7,
					"interpolation":"LINEAR",
					"output":13
				},
				{
					"input":7,
					"interpolation":"LINEAR",
					"output":14
				},
				{
					"input":7,
					"interpolation":"LINEAR",
					"output":15
				},
				{
					"input":7,
					"interpolation":"LINEAR",
					"output":16
				},
				{
					"input":7,
					"interpolation":"LINEAR",
					"output":17
				},
				{
					"input":7,
					"interpolation":"LINEAR",
					"output":18
				},
				{
					"input":7,
					"interpolation":"LINEAR",
					"output":19
				},
				{
					"input":7,
					"interpolation":"LINEAR",
					"output":20
				},
				{
					"input":7,
					"interpolation":"LINEAR",
					"output":21
				},
				{
					"input":7,
					"interpolation":"LINEAR",
					"output":22
				},
				{
					"input":7,
					"interpolation":"LINEAR",
					"output":23
				},
				{
					"input":7,
					"interpolation":"LINEAR",
					"output":24
				},
				{
					"input":7,
					"interpolation":"LINEAR",
					"output":25
				},
				{
					"input":7,
					"interpolation":"LINEAR",
					"output":26
				},
				{
					"input":7,
					"interpolation":"LINEAR",
					"output":27
				},
				{
					"input":7,
					"interpolation":"LINEAR",
					"output":28
				},
				{
					"input":7,
					"interpolation":"LINEAR",
					"output":29
				},
				{
					"input":7,
					"interpolation":"LINEAR",
					"output":30
				},
				{
					"input":7,
					"interpolation":"LINEAR",
					"output":31
				}
			]
		}
	],
	"materials":[
		{
			"doubleSided":true,
			"name":"Material.001",
			"pbrMetallicRoughness":{
				"baseColorFactor":[
					0.9302979111671448,
					0.7493395209312439,
					0.9550902247428894,
					1
				],
				"metallicFactor":0,
				"roughnessFactor":0.5
			}
		}
	],
	"meshes":[
		{
			"name":"Plane",
			"primitives":[
				{
					"attributes":{
						"POSITION":0,
						"TEXCOORD_0":1,
						"NORMAL":2,
						"JOINTS_0":3,
						"WEIGHTS_0":4
					},
					"indices":5,
					"material":0
				}
			]
		}
	],
	"skins":[
		{
			"inverseBindMatrices":6,
			"joints":[
				2,
				1,
				0,
				7,
				4,
				3,
				6,
				5
			],
			"name":"Armature"
		}
	],
	"accessors":[
		{
			"bufferView":0,
			"componentType":5126,
			"count":14,
			"max":[
				3,
				0,
				3
			],
			"min":[
				-5,
				0,
				-3
			],
			"type":"VEC3"
		},
		{
			"bufferView":1,
			"componentType":5126,
			"count":14,
			"type":"VEC2"
		},
		{
			"bufferView":2,
			"componentType":5126,
			"count":14,
			"type":"VEC3"
		},
		{
			"bufferView":3,
			"componentType":5121,
			"count":14,
			"type":"VEC4"
		},
		{
			"bufferView":4,
			"componentType":5126,
			"count":14,
			"type":"VEC4"
		},
		{
			"bufferView":5,
			"componentType":5123,
			"count":36,
			"type":"SCALAR"
		},
		{
			"bufferView":6,
			"componentType":5126,
			"count":8,
			"type":"MAT4"
		},
		{
			"bufferView":7,
			"componentType":5126,
			"count":100,
			"max":[
				4.166666666666667
			],
			"min":[
				0.041666666666666664
			],
			"type":"SCALAR"
		},
		{
			"bufferView":8,
			"componentType":5126,
			"count":100,
			"type":"VEC3"
		},
		{
			"bufferView":9,
			"componentType":5126,
			"count":100,
			"type":"VEC4"
		},
		{
			"bufferView":10,
			"componentType":5126,
			"count":100,
			"type":"VEC3"
		},
		{
			"bufferView":11,
			"componentType":5126,
			"count":100,
			"type":"VEC3"
		},
		{
			"bufferView":12,
			"componentType":5126,
			"count":100,
			"type":"VEC4"
		},
		{
			"bufferView":13,
			"componentType":5126,
			"count":100,
			"type":"VEC3"
		},
		{
			"bufferView":14,
			"componentType":5126,
			"count":100,
			"type":"VEC3"
		},
		{
			"bufferView":15,
			"componentType":5126,
			"count":100,
			"type":"VEC4"
		},
		{
			"bufferView":16,
			"componentType":5126,
			"count":100,
			"type":"VEC3"
		},
		{
			"bufferView":17,
			"componentType":5126,
			"count":100,
			"type":"VEC3"
		},
		{
			"bufferView":18,
			"componentType":5126,
			"count":100,
			"type":"VEC4"
		},
		{
			"bufferView":19,
			"componentType":5126,
			"count":100,
			"type":"VEC3"
		},
		{
			"bufferView":20,
			"componentType":5126,
			"count":100,
			"type":"VEC3"
		},
		{
			"bufferView":21,
			"componentType":5126,
			"count":100,
			"type":"VEC4"
		},
		{
			"bufferView":22,
			"componentType":5126,
			"count":100,
			"type":"VEC3"
		},
		{
			"bufferView":23,
			"componentType":5126,
			"count":100,
			"type":"VEC3"
		},
		{
			"bufferView":24,
			"componentType":5126,
			"count":100,
			"type":"VEC4"
		},
		{
			"bufferView":25,
			"componentType":5126,
			"count":100,
			"type":"VEC3"
		},
		{
			"bufferView":26,
			"componentType":5126,
			"count":100,
			"type":"VEC3"
		},
		{
			"bufferView":27,
			"componentType":5126,
			"count":100,
			"type":"VEC4"
		},
		{
			"bufferView":28,
			"componentType":5126,
			"count":100,
			"type":"VEC3"
		},
		{
			"bufferView":29,
			"componentType":5126,
			"count":100,
			"type":"VEC3"
		},
		{
			"bufferView":30,
			"componentType":5126,
			"count":100,
			"type":"VEC4"
		},
		{
			"bufferView":31,
			"componentType":5126,
			"count":100,
			"type":"VEC3"
		}
	],
	"bufferViews":[
		{
			"buffer":0,
			"byteLength":168,
			"byteOffset":0,
			"target":34962
		},
		{
			"buffer":0,
			"byteLength":112,
			"byteOffset":168,
			"target":34962
		},
		{
			"buffer":0,
			"byteLength":168,
			"byteOffset":280,
			"target":34962
		},
		{
			"buffer":0,
			"byteLength":56,
			"byteOffset":448,
			"target":34962
		},
		{
			"buffer":0,
			"byteLength":224,
			"byteOffset":504,
			"target":34962
		},
		{
			"buffer":0,
			"byteLength":72,
			"byteOffset":728,
			"target":34963
		},
		{
			"buffer":0,
			"byteLength":512,
			"byteOffset":800
		},
		{
			"buffer":0,
			"byteLength":400,
			"byteOffset":1312
		},
		{
			"buffer":0,
			"byteLength":1200,
			"byteOffset":1712
		},
		{
			"buffer":0,
			"byteLength":1600,
			"byteOffset":2912
		},
		{
			"buffer":0,
			"byteLength":1200,
			"byteOffset":4512
		},
		{
			"buffer":0,
			"byteLength":1200,
			"byteOffset":5712
		},
		{
			"buffer":0,
			"byteLength":1600,
			"byteOffset":6912
		},
		{
			"buffer":0,
			"byteLength":1200,
			"byteOffset":8512
		},
		{
			"buffer":0,
			"byteLength":1200,
			"byteOffset":9712
		},
		{
			"buffer":0,
			"byteLength":1600,
			"byteOffset":10912
		},
		{
			"buffer":0,
			"byteLength":1200,
			"byteOffset":12512
		},
		{
			"buffer":0,
			"byteLength":1200,
			"byteOffset":13712
		},
		{
			"buffer":0,
			"byteLength":1600,
			"byteOffset":14912
		},
		{
			"buffer":0,
			"byteLength":1200,
			"byteOffset":16512
		},
		{
			"buffer":0,
			"byteLength":1200,
			"byteOffset":17712
		},
		{
			"buffer":0,
			"byteLength":1600,
			"byteOffset":18912
		},
		{
			"buffer":0,
			"byteLength":1200,
			"byteOffset":20512
		},
		{
			"buffer":0,
			"byteLength":1200,
			"byteOffset":21712
		},
		{
			"buffer":0,
			"byteLength":1600,
			"byteOffset":22912
		},
		{
			"buffer":0,
			"byteLength":1200,
			"byteOffset":24512
		},
		{
			"buffer":0,
			"byteLength":1200,
			"byteOffset":25712
		},
		{
			"buffer":0,
			"byteLength":1600,
			"byteOffset":26912
		},
		{
			"buffer":0,
			"byteLength":1200,
			"byteOffset":28512
		},
		{
			"buffer":0,
			"byteLength":1200,
			"byteOffset":29712
		},
		{
			"buffer":0,
			"byteLength":1600,
			"byteOffset":30912
		},
		{
			"buffer":0,
			"byteLength":1200,
			"byteOffset":32512
		}
	],
	"buffers":[
		{
			"byteLength":33712,
			"uri":"1_cube_fold_typeB.bin"
		}
	]
}
