{
	"asset":{
		"generator":"Khronos glTF Blender I/O v3.5.30",
		"version":"2.0"
	},
	"scene":0,
	"scenes":[
		{
			"name":"Scene",
			"nodes":[
				0
			]
		}
	],
	"nodes":[
		{
			"mesh":0,
			"name":"Text",
			"rotation":[
				0.6393483877182007,
				-0.0002911592018790543,
				0.005108566489070654,
				0.7689002156257629
			],
			"scale":[
				0.38072702288627625,
				0.38072696328163147,
				0.38072702288627625
			]
		}
	],
	"meshes":[
		{
			"name":"Curve",
			"primitives":[
				{
					"attributes":{
						"POSITION":0,
						"TEXCOORD_0":1,
						"NORMAL":2
					},
					"indices":3
				}
			]
		}
	],
	"accessors":[
		{
			"bufferView":0,
			"componentType":5126,
			"count":54110,
			"max":[
				4.651208877563477,
				0.12000000476837158,
				0.1560019552707672
			],
			"min":[
				-0.0064131394028663635,
				-0.12000000476837158,
				-0.6360078454017639
			],
			"type":"VEC3"
		},
		{
			"bufferView":1,
			"componentType":5126,
			"count":54110,
			"type":"VEC2"
		},
		{
			"bufferView":2,
			"componentType":5126,
			"count":54110,
			"type":"VEC3"
		},
		{
			"bufferView":3,
			"componentType":5123,
			"count":276888,
			"type":"SCALAR"
		}
	],
	"bufferViews":[
		{
			"buffer":0,
			"byteLength":649320,
			"byteOffset":0,
			"target":34962
		},
		{
			"buffer":0,
			"byteLength":432880,
			"byteOffset":649320,
			"target":34962
		},
		{
			"buffer":0,
			"byteLength":649320,
			"byteOffset":1082200,
			"target":34962
		},
		{
			"buffer":0,
			"byteLength":553776,
			"byteOffset":1731520,
			"target":34963
		}
	],
	"buffers":[
		{
			"byteLength":2285296,
			"uri":"text.bin"
		}
	]
}
