{
  "accessors": [
    {
      "bufferView": 2,
      "componentType": 5126,
      "count": 1669,
      "max": [
        1.6816794872283936,
        12.959966659545898,
        1.0005455017089844
      ],
      "min": [
        -3.9760067462921143,
        -12.963737487792969,
        -0.9994547367095947
      ],
      "type": "VEC3"
    },
    {
      "bufferView": 2,
      "byteOffset": 20028,
      "componentType": 5126,
      "count": 1669,
      "max": [
        0.0,
        1.0,
        -0.0
      ],
      "min": [
        0.0,
        1.0,
        -0.0
      ],
      "type": "VEC3"
    },
    {
      "bufferView": 1,
      "componentType": 5126,
      "count": 1669,
      "max": [
        1.0,
        1.0
      ],
      "min": [
        0.0,
        0.0
      ],
      "type": "VEC2"
    },
    {
      "bufferView": 0,
      "componentType": 5125,
      "count": 7254,
      "type": "SCALAR"
    },
    {
      "bufferView": 2,
      "byteOffset": 40056,
      "componentType": 5126,
      "count": 1622,
      "max": [
        2.4227163791656494,
        12.433821678161621,
        1.4816755056381226
      ],
      "min": [
        -1.0447485446929932,
        -12.437593460083008,
        -1.4805846214294434
      ],
      "type": "VEC3"
    },
    {
      "bufferView": 2,
      "byteOffset": 59520,
      "componentType": 5126,
      "count": 1622,
      "max": [
        0.0,
        1.0,
        -0.0
      ],
      "min": [
        0.0,
        1.0,
        -0.0
      ],
      "type": "VEC3"
    },
    {
      "bufferView": 1,
      "byteOffset": 13352,
      "componentType": 5126,
      "count": 1622,
      "max": [
        1.0000001192092896,
        1.0
      ],
      "min": [
        0.0,
        0.0
      ],
      "type": "VEC2"
    },
    {
      "bufferView": 0,
      "byteOffset": 29016,
      "componentType": 5125,
      "count": 7536,
      "type": "SCALAR"
    },
    {
      "bufferView": 2,
      "byteOffset": 78984,
      "componentType": 5126,
      "count": 1534,
      "max": [
        2.3611738681793213,
        8.90200424194336,
        1.2846250534057617
      ],
      "min": [
        -3.6637699604034424,
        -8.90577507019043,
        -1.2835341691970825
      ],
      "type": "VEC3"
    },
    {
      "bufferView": 2,
      "byteOffset": 97392,
      "componentType": 5126,
      "count": 1534,
      "max": [
        0.0,
        1.0,
        -0.0
      ],
      "min": [
        0.0,
        1.0,
        -0.0
      ],
      "type": "VEC3"
    },
    {
      "bufferView": 1,
      "byteOffset": 26328,
      "componentType": 5126,
      "count": 1534,
      "max": [
        1.0,
        1.0
      ],
      "min": [
        0.0,
        0.0
      ],
      "type": "VEC2"
    },
    {
      "bufferView": 0,
      "byteOffset": 59160,
      "componentType": 5125,
      "count": 8010,
      "type": "SCALAR"
    },
    {
      "bufferView": 3,
      "componentType": 5126,
      "count": 201,
      "max": [
        8.333333015441895
      ],
      "min": [
        0.0
      ],
      "type": "SCALAR"
    },
    {
      "bufferView": 5,
      "componentType": 5126,
      "count": 201,
      "max": [
        0.7070283889770508,
        0.6329212784767151,
        0.30038130283355713,
        0.707084059715271
      ],
      "min": [
        -0.7070416808128357,
        -0.7071291208267212,
        -0.7071205973625183,
        0.007744817528873682
      ],
      "type": "VEC4"
    },
    {
      "bufferView": 3,
      "byteOffset": 804,
      "componentType": 5126,
      "count": 53,
      "max": [
        8.333333015441895
      ],
      "min": [
        0.0
      ],
      "type": "SCALAR"
    },
    {
      "bufferView": 4,
      "componentType": 5126,
      "count": 53,
      "max": [
        0.5763524770736694,
        0.15696807205677032,
        0.5763525366783142
      ],
      "min": [
        0.5763524770736694,
        0.15696805715560913,
        0.5763524174690247
      ],
      "type": "VEC3"
    },
    {
      "bufferView": 3,
      "byteOffset": 1016,
      "componentType": 5126,
      "count": 201,
      "max": [
        8.333333015441895
      ],
      "min": [
        0.0
      ],
      "type": "SCALAR"
    },
    {
      "bufferView": 5,
      "byteOffset": 3216,
      "componentType": 5126,
      "count": 201,
      "max": [
        0.7070283889770508,
        0.6329212188720703,
        0.30038127303123474,
        0.707084059715271
      ],
      "min": [
        -0.7070417404174805,
        -0.7071291208267212,
        -0.7071205377578735,
        0.0077447956427931786
      ],
      "type": "VEC4"
    }
  ],
  "animations": [
    {
      "channels": [
        {
          "sampler": 0,
          "target": {
            "node": 3,
            "path": "rotation"
          }
        },
        {
          "sampler": 1,
          "target": {
            "node": 3,
            "path": "scale"
          }
        }
      ],
      "name": "Action",
      "samplers": [
        {
          "input": 12,
          "interpolation": "LINEAR",
          "output": 13
        },
        {
          "input": 14,
          "interpolation": "LINEAR",
          "output": 15
        }
      ]
    },
    {
      "channels": [
        {
          "sampler": 0,
          "target": {
            "node": 3,
            "path": "rotation"
          }
        }
      ],
      "name": "CylinderAction",
      "samplers": [
        {
          "input": 16,
          "interpolation": "LINEAR",
          "output": 17
        }
      ]
    }
  ],
  "asset": {
    "extras": {
      "author": "Jaycin (https://sketchfab.com/jaycin)",
      "license": "CC-BY-4.0 (http://creativecommons.org/licenses/by/4.0/)",
      "source": "https://sketchfab.com/3d-models/headphone-24be599a35e345b187a169d1a773a0e6",
      "title": "Headphone"
    },
    "generator": "Sketchfab-12.97.0",
    "version": "2.0"
  },
  "bufferViews": [
    {
      "buffer": 0,
      "byteLength": 91200,
      "name": "floatBufferViews",
      "target": 34963
    },
    {
      "buffer": 0,
      "byteLength": 38600,
      "byteOffset": 91200,
      "byteStride": 8,
      "name": "floatBufferViews",
      "target": 34962
    },
    {
      "buffer": 0,
      "byteLength": 115800,
      "byteOffset": 129800,
      "byteStride": 12,
      "name": "floatBufferViews",
      "target": 34962
    },
    {
      "buffer": 0,
      "byteLength": 1820,
      "byteOffset": 245600,
      "name": "floatBufferViews"
    },
    {
      "buffer": 0,
      "byteLength": 636,
      "byteOffset": 247420,
      "byteStride": 12,
      "name": "floatBufferViews"
    },
    {
      "buffer": 0,
      "byteLength": 6432,
      "byteOffset": 248056,
      "byteStride": 16,
      "name": "floatBufferViews"
    }
  ],
  "buffers": [
    {
      "byteLength": 254488,
      "uri": "scene.bin"
    }
  ],
  "materials": [
    {
      "doubleSided": true,
      "name": "Material.002"
    },
    {
      "doubleSided": true,
      "name": "Material.001"
    },
    {
      "doubleSided": true,
      "name": "Material"
    }
  ],
  "meshes": [
    {
      "name": "Object_0",
      "primitives": [
        {
          "attributes": {
            "NORMAL": 1,
            "POSITION": 0,
            "TEXCOORD_0": 2
          },
          "indices": 3,
          "material": 0,
          "mode": 4
        }
      ]
    },
    {
      "name": "Object_1",
      "primitives": [
        {
          "attributes": {
            "NORMAL": 5,
            "POSITION": 4,
            "TEXCOORD_0": 6
          },
          "indices": 7,
          "material": 1,
          "mode": 4
        }
      ]
    },
    {
      "name": "Object_2",
      "primitives": [
        {
          "attributes": {
            "NORMAL": 9,
            "POSITION": 8,
            "TEXCOORD_0": 10
          },
          "indices": 11,
          "material": 2,
          "mode": 4
        }
      ]
    }
  ],
  "nodes": [
    {
      "children": [
        1
      ],
      "matrix": [
        1.0,
        0.0,
        0.0,
        0.0,
        0.0,
        2.220446049250313e-16,
        -1.0,
        0.0,
        0.0,
        1.0,
        2.220446049250313e-16,
        0.0,
        0.0,
        0.0,
        0.0,
        1.0
      ],
      "name": "Sketchfab_model"
    },
    {
      "children": [
        2
      ],
      "name": "root"
    },
    {
      "children": [
        3
      ],
      "matrix": [
        1.0,
        0.0,
        0.0,
        0.0,
        0.0,
        2.220446049250313e-16,
        1.0,
        0.0,
        0.0,
        -1.0,
        2.220446049250313e-16,
        0.0,
        0.0,
        0.0,
        0.0,
        1.0
      ],
      "name": "GLTF_SceneRootNode"
    },
    {
      "children": [
        4,
        5,
        6
      ],
      "name": "Cylinder_2",
      "rotation": [
        0.058781031519174576,
        -0.3602263927459717,
        -0.6084974408149719,
        0.7046365141868591
      ],
      "scale": [
        0.5763524770736694,
        0.15696807205677032,
        0.5763524770736694
      ],
      "translation": [
        -1.54054594039917,
        1.8058135509490967,
        0.02433454804122448
      ]
    },
    {
      "mesh": 0,
      "name": "Object_4"
    },
    {
      "mesh": 1,
      "name": "Object_5"
    },
    {
      "mesh": 2,
      "name": "Object_6"
    }
  ],
  "scene": 0,
  "scenes": [
    {
      "name": "Sketchfab_Scene",
      "nodes": [
        0
      ]
    }
  ]
}
