{
	"asset":{
		"generator":"Khronos glTF Blender I/O v3.5.30",
		"version":"2.0"
	},
	"scene":0,
	"scenes":[
		{
			"name":"Scene",
			"nodes":[
				1,
				2,
				3
			]
		}
	],
	"nodes":[
		{
			"name":"Empty",
			"rotation":[
				0,
				0,
				-0.7071068286895752,
				0.7071068286895752
			]
		},
		{
			"children":[
				0
			],
			"mesh":0,
			"name":"Plane"
		},
		{
			"mesh":1,
			"name":"Circle",
			"rotation":[
				0.00023404863895848393,
				0,
				0,
				1
			],
			"translation":[
				0,
				0,
				1
			]
		},
		{
			"mesh":2,
			"name":"Circle.001",
			"rotation":[
				1,
				0,
				0,
				0.00023420254001393914
			],
			"translation":[
				0,
				0,
				-1
			]
		}
	],
	"animations":[
		{
			"channels":[
				{
					"sampler":0,
					"target":{
						"node":1,
						"path":"translation"
					}
				},
				{
					"sampler":1,
					"target":{
						"node":1,
						"path":"rotation"
					}
				},
				{
					"sampler":2,
					"target":{
						"node":1,
						"path":"scale"
					}
				}
			],
			"name":"PlaneAction.002",
			"samplers":[
				{
					"input":13,
					"interpolation":"LINEAR",
					"output":14
				},
				{
					"input":13,
					"interpolation":"LINEAR",
					"output":15
				},
				{
					"input":13,
					"interpolation":"LINEAR",
					"output":16
				}
			]
		},
		{
			"channels":[
				{
					"sampler":0,
					"target":{
						"node":0,
						"path":"translation"
					}
				},
				{
					"sampler":1,
					"target":{
						"node":0,
						"path":"rotation"
					}
				},
				{
					"sampler":2,
					"target":{
						"node":0,
						"path":"scale"
					}
				}
			],
			"name":"Action.002",
			"samplers":[
				{
					"input":17,
					"interpolation":"LINEAR",
					"output":18
				},
				{
					"input":17,
					"interpolation":"LINEAR",
					"output":19
				},
				{
					"input":17,
					"interpolation":"LINEAR",
					"output":20
				}
			]
		},
		{
			"channels":[
				{
					"sampler":0,
					"target":{
						"node":2,
						"path":"translation"
					}
				},
				{
					"sampler":1,
					"target":{
						"node":2,
						"path":"rotation"
					}
				},
				{
					"sampler":2,
					"target":{
						"node":2,
						"path":"scale"
					}
				}
			],
			"name":"Action.003",
			"samplers":[
				{
					"input":17,
					"interpolation":"LINEAR",
					"output":21
				},
				{
					"input":22,
					"interpolation":"LINEAR",
					"output":23
				},
				{
					"input":17,
					"interpolation":"LINEAR",
					"output":24
				}
			]
		},
		{
			"channels":[
				{
					"sampler":0,
					"target":{
						"node":3,
						"path":"translation"
					}
				},
				{
					"sampler":1,
					"target":{
						"node":3,
						"path":"rotation"
					}
				},
				{
					"sampler":2,
					"target":{
						"node":3,
						"path":"scale"
					}
				}
			],
			"name":"Action.004",
			"samplers":[
				{
					"input":17,
					"interpolation":"LINEAR",
					"output":25
				},
				{
					"input":22,
					"interpolation":"LINEAR",
					"output":26
				},
				{
					"input":17,
					"interpolation":"LINEAR",
					"output":27
				}
			]
		}
	],
	"materials":[
		{
			"doubleSided":true,
			"name":"Material.001",
			"pbrMetallicRoughness":{
				"baseColorFactor":[
					0,
					0.8000000715255737,
					0.021064281463623047,
					1
				],
				"metallicFactor":0,
				"roughnessFactor":0.5
			}
		}
	],
	"meshes":[
		{
			"name":"Plane",
			"primitives":[
				{
					"attributes":{
						"POSITION":0,
						"TEXCOORD_0":1,
						"NORMAL":2,
						"TANGENT":3
					},
					"indices":4,
					"material":0
				}
			]
		},
		{
			"name":"Circle.003",
			"primitives":[
				{
					"attributes":{
						"POSITION":5,
						"TEXCOORD_0":6,
						"NORMAL":7
					},
					"indices":8,
					"material":0
				}
			]
		},
		{
			"name":"Circle.004",
			"primitives":[
				{
					"attributes":{
						"POSITION":9,
						"TEXCOORD_0":10,
						"NORMAL":11
					},
					"indices":12,
					"material":0
				}
			]
		}
	],
	"accessors":[
		{
			"bufferView":0,
			"componentType":5126,
			"count":15191,
			"max":[
				5,
				0,
				1
			],
			"min":[
				-1,
				0,
				-1
			],
			"type":"VEC3"
		},
		{
			"bufferView":1,
			"componentType":5126,
			"count":15191,
			"type":"VEC2"
		},
		{
			"bufferView":2,
			"componentType":5126,
			"count":15191,
			"type":"VEC3"
		},
		{
			"bufferView":3,
			"componentType":5126,
			"count":15191,
			"type":"VEC4"
		},
		{
			"bufferView":4,
			"componentType":5123,
			"count":78408,
			"type":"SCALAR"
		},
		{
			"bufferView":5,
			"componentType":5126,
			"count":3000,
			"max":[
				0.9549999833106995,
				0,
				1.9099998474121094
			],
			"min":[
				-0.9549999833106995,
				-0.009999999776482582,
				-5.960464477539063e-08
			],
			"type":"VEC3"
		},
		{
			"bufferView":6,
			"componentType":5126,
			"count":3000,
			"type":"VEC2"
		},
		{
			"bufferView":7,
			"componentType":5126,
			"count":3000,
			"type":"VEC3"
		},
		{
			"bufferView":8,
			"componentType":5123,
			"count":5988,
			"type":"SCALAR"
		},
		{
			"bufferView":9,
			"componentType":5126,
			"count":500,
			"max":[
				0.9549999833106995,
				0,
				1.9099998474121094
			],
			"min":[
				-0.9549999833106995,
				0,
				-5.960464477539063e-08
			],
			"type":"VEC3"
		},
		{
			"bufferView":10,
			"componentType":5126,
			"count":500,
			"type":"VEC2"
		},
		{
			"bufferView":11,
			"componentType":5126,
			"count":500,
			"type":"VEC3"
		},
		{
			"bufferView":12,
			"componentType":5123,
			"count":1494,
			"type":"SCALAR"
		},
		{
			"bufferView":13,
			"componentType":5126,
			"count":2,
			"max":[
				4.166666666666667
			],
			"min":[
				0.041666666666666664
			],
			"type":"SCALAR"
		},
		{
			"bufferView":14,
			"componentType":5126,
			"count":2,
			"type":"VEC3"
		},
		{
			"bufferView":15,
			"componentType":5126,
			"count":2,
			"type":"VEC4"
		},
		{
			"bufferView":16,
			"componentType":5126,
			"count":2,
			"type":"VEC3"
		},
		{
			"bufferView":17,
			"componentType":5126,
			"count":2,
			"max":[
				4.208333333333333
			],
			"min":[
				0.041666666666666664
			],
			"type":"SCALAR"
		},
		{
			"bufferView":18,
			"componentType":5126,
			"count":2,
			"type":"VEC3"
		},
		{
			"bufferView":19,
			"componentType":5126,
			"count":2,
			"type":"VEC4"
		},
		{
			"bufferView":20,
			"componentType":5126,
			"count":2,
			"type":"VEC3"
		},
		{
			"bufferView":21,
			"componentType":5126,
			"count":2,
			"type":"VEC3"
		},
		{
			"bufferView":22,
			"componentType":5126,
			"count":101,
			"max":[
				4.208333333333333
			],
			"min":[
				0.041666666666666664
			],
			"type":"SCALAR"
		},
		{
			"bufferView":23,
			"componentType":5126,
			"count":101,
			"type":"VEC4"
		},
		{
			"bufferView":24,
			"componentType":5126,
			"count":2,
			"type":"VEC3"
		},
		{
			"bufferView":25,
			"componentType":5126,
			"count":2,
			"type":"VEC3"
		},
		{
			"bufferView":26,
			"componentType":5126,
			"count":101,
			"type":"VEC4"
		},
		{
			"bufferView":27,
			"componentType":5126,
			"count":2,
			"type":"VEC3"
		}
	],
	"bufferViews":[
		{
			"buffer":0,
			"byteLength":182292,
			"byteOffset":0,
			"target":34962
		},
		{
			"buffer":0,
			"byteLength":121528,
			"byteOffset":182292,
			"target":34962
		},
		{
			"buffer":0,
			"byteLength":182292,
			"byteOffset":303820,
			"target":34962
		},
		{
			"buffer":0,
			"byteLength":243056,
			"byteOffset":486112,
			"target":34962
		},
		{
			"buffer":0,
			"byteLength":156816,
			"byteOffset":729168,
			"target":34963
		},
		{
			"buffer":0,
			"byteLength":36000,
			"byteOffset":885984,
			"target":34962
		},
		{
			"buffer":0,
			"byteLength":24000,
			"byteOffset":921984,
			"target":34962
		},
		{
			"buffer":0,
			"byteLength":36000,
			"byteOffset":945984,
			"target":34962
		},
		{
			"buffer":0,
			"byteLength":11976,
			"byteOffset":981984,
			"target":34963
		},
		{
			"buffer":0,
			"byteLength":6000,
			"byteOffset":993960,
			"target":34962
		},
		{
			"buffer":0,
			"byteLength":4000,
			"byteOffset":999960,
			"target":34962
		},
		{
			"buffer":0,
			"byteLength":6000,
			"byteOffset":1003960,
			"target":34962
		},
		{
			"buffer":0,
			"byteLength":2988,
			"byteOffset":1009960,
			"target":34963
		},
		{
			"buffer":0,
			"byteLength":8,
			"byteOffset":1012948
		},
		{
			"buffer":0,
			"byteLength":24,
			"byteOffset":1012956
		},
		{
			"buffer":0,
			"byteLength":32,
			"byteOffset":1012980
		},
		{
			"buffer":0,
			"byteLength":24,
			"byteOffset":1013012
		},
		{
			"buffer":0,
			"byteLength":8,
			"byteOffset":1013036
		},
		{
			"buffer":0,
			"byteLength":24,
			"byteOffset":1013044
		},
		{
			"buffer":0,
			"byteLength":32,
			"byteOffset":1013068
		},
		{
			"buffer":0,
			"byteLength":24,
			"byteOffset":1013100
		},
		{
			"buffer":0,
			"byteLength":24,
			"byteOffset":1013124
		},
		{
			"buffer":0,
			"byteLength":404,
			"byteOffset":1013148
		},
		{
			"buffer":0,
			"byteLength":1616,
			"byteOffset":1013552
		},
		{
			"buffer":0,
			"byteLength":24,
			"byteOffset":1015168
		},
		{
			"buffer":0,
			"byteLength":24,
			"byteOffset":1015192
		},
		{
			"buffer":0,
			"byteLength":1616,
			"byteOffset":1015216
		},
		{
			"buffer":0,
			"byteLength":24,
			"byteOffset":1016832
		}
	],
	"buffers":[
		{
			"byteLength":1016856,
			"uri":"plane_bend3.bin"
		}
	]
}
