{
	"asset":{
		"generator":"Khronos glTF Blender I/O v3.5.30",
		"version":"2.0"
	},
	"scene":0,
	"scenes":[
		{
			"name":"Scene",
			"nodes":[
				1,
				2,
				3
			]
		}
	],
	"nodes":[
		{
			"name":"Empty",
			"rotation":[
				0,
				0,
				-0.7071068286895752,
				0.7071068286895752
			]
		},
		{
			"children":[
				0
			],
			"mesh":0,
			"name":"Plane"
		},
		{
			"mesh":1,
			"name":"Circle",
			"translation":[
				0,
				0,
				1
			]
		},
		{
			"mesh":2,
			"name":"Circle.001",
			"rotation":[
				1,
				0,
				0,
				4.371138828673793e-08
			],
			"translation":[
				0,
				0,
				-1
			]
		}
	],
	"animations":[
		{
			"channels":[
				{
					"sampler":0,
					"target":{
						"node":2,
						"path":"rotation"
					}
				}
			],
			"name":"CircleAction",
			"samplers":[
				{
					"input":12,
					"interpolation":"LINEAR",
					"output":13
				}
			]
		},
		{
			"channels":[
				{
					"sampler":0,
					"target":{
						"node":3,
						"path":"rotation"
					}
				}
			],
			"name":"CircleAction.001",
			"samplers":[
				{
					"input":12,
					"interpolation":"LINEAR",
					"output":14
				}
			]
		}
	],
	"materials":[
		{
			"doubleSided":true,
			"name":"Material.001",
			"pbrMetallicRoughness":{
				"baseColorFactor":[
					0,
					0.8000000715255737,
					0.021064281463623047,
					1
				],
				"metallicFactor":0,
				"roughnessFactor":0.5
			}
		}
	],
	"meshes":[
		{
			"name":"Plane",
			"primitives":[
				{
					"attributes":{
						"POSITION":0,
						"TEXCOORD_0":1,
						"NORMAL":2
					},
					"indices":3,
					"material":0
				}
			]
		},
		{
			"name":"Circle.003",
			"primitives":[
				{
					"attributes":{
						"POSITION":4,
						"TEXCOORD_0":5,
						"NORMAL":6
					},
					"indices":7,
					"material":0
				}
			]
		},
		{
			"name":"Circle.004",
			"primitives":[
				{
					"attributes":{
						"POSITION":8,
						"TEXCOORD_0":9,
						"NORMAL":10
					},
					"indices":11,
					"material":0
				}
			]
		}
	],
	"accessors":[
		{
			"bufferView":0,
			"componentType":5126,
			"count":13467,
			"max":[
				5,
				0,
				1
			],
			"min":[
				-1,
				0,
				-1
			],
			"type":"VEC3"
		},
		{
			"bufferView":1,
			"componentType":5126,
			"count":13467,
			"type":"VEC2"
		},
		{
			"bufferView":2,
			"componentType":5126,
			"count":13467,
			"type":"VEC3"
		},
		{
			"bufferView":3,
			"componentType":5123,
			"count":78408,
			"type":"SCALAR"
		},
		{
			"bufferView":4,
			"componentType":5126,
			"count":3000,
			"max":[
				0.9549999833106995,
				0,
				1.9099998474121094
			],
			"min":[
				-0.9549999833106995,
				-0.009999999776482582,
				-5.960464477539063e-08
			],
			"type":"VEC3"
		},
		{
			"bufferView":5,
			"componentType":5126,
			"count":3000,
			"type":"VEC2"
		},
		{
			"bufferView":6,
			"componentType":5126,
			"count":3000,
			"type":"VEC3"
		},
		{
			"bufferView":7,
			"componentType":5123,
			"count":5988,
			"type":"SCALAR"
		},
		{
			"bufferView":8,
			"componentType":5126,
			"count":500,
			"max":[
				0.9549999833106995,
				0,
				1.9099998474121094
			],
			"min":[
				-0.9549999833106995,
				0,
				-5.960464477539063e-08
			],
			"type":"VEC3"
		},
		{
			"bufferView":9,
			"componentType":5126,
			"count":500,
			"type":"VEC2"
		},
		{
			"bufferView":10,
			"componentType":5126,
			"count":500,
			"type":"VEC3"
		},
		{
			"bufferView":11,
			"componentType":5123,
			"count":1494,
			"type":"SCALAR"
		},
		{
			"bufferView":12,
			"componentType":5126,
			"count":3,
			"max":[
				4.166666666666667
			],
			"min":[
				0
			],
			"type":"SCALAR"
		},
		{
			"bufferView":13,
			"componentType":5126,
			"count":3,
			"type":"VEC4"
		},
		{
			"bufferView":14,
			"componentType":5126,
			"count":3,
			"type":"VEC4"
		}
	],
	"bufferViews":[
		{
			"buffer":0,
			"byteLength":161604,
			"byteOffset":0,
			"target":34962
		},
		{
			"buffer":0,
			"byteLength":107736,
			"byteOffset":161604,
			"target":34962
		},
		{
			"buffer":0,
			"byteLength":161604,
			"byteOffset":269340,
			"target":34962
		},
		{
			"buffer":0,
			"byteLength":156816,
			"byteOffset":430944,
			"target":34963
		},
		{
			"buffer":0,
			"byteLength":36000,
			"byteOffset":587760,
			"target":34962
		},
		{
			"buffer":0,
			"byteLength":24000,
			"byteOffset":623760,
			"target":34962
		},
		{
			"buffer":0,
			"byteLength":36000,
			"byteOffset":647760,
			"target":34962
		},
		{
			"buffer":0,
			"byteLength":11976,
			"byteOffset":683760,
			"target":34963
		},
		{
			"buffer":0,
			"byteLength":6000,
			"byteOffset":695736,
			"target":34962
		},
		{
			"buffer":0,
			"byteLength":4000,
			"byteOffset":701736,
			"target":34962
		},
		{
			"buffer":0,
			"byteLength":6000,
			"byteOffset":705736,
			"target":34962
		},
		{
			"buffer":0,
			"byteLength":2988,
			"byteOffset":711736,
			"target":34963
		},
		{
			"buffer":0,
			"byteLength":12,
			"byteOffset":714724
		},
		{
			"buffer":0,
			"byteLength":48,
			"byteOffset":714736
		},
		{
			"buffer":0,
			"byteLength":48,
			"byteOffset":714784
		}
	],
	"buffers":[
		{
			"byteLength":714832,
			"uri":"plane_bend.bin"
		}
	]
}
