{
	"asset":{
		"generator":"Khronos glTF Blender I/O v3.6.27",
		"version":"2.0"
	},
	"scene":0,
	"scenes":[
		{
			"name":"Scene",
			"nodes":[
				0
			]
		}
	],
	"nodes":[
		{
			"mesh":0,
			"name":"Text",
			"rotation":[
				0.7184135317802429,
				0.0011756847379729152,
				0.01128576509654522,
				0.695523738861084
			]
		}
	],
	"materials":[
		{
			"doubleSided":true,
			"name":"le football",
			"pbrMetallicRoughness":{
				"baseColorFactor":[
					0.8017628192901611,
					0.01804301142692566,
					0.015577316284179688,
					20
				],
				"metallicFactor":0,
				"roughnessFactor":0.5
			}
		}
	],
	"meshes":[
		{
			"name":"Text",
			"primitives":[
				{
					"attributes":{
						"POSITION":0,
						"NORMAL":1,
						"TEXCOORD_0":2
					},
					"indices":3,
					"material":0
				}
			]
		}
	],
	"accessors":[
		{
			"bufferView":0,
			"componentType":5126,
			"count":9934,
			"max":[
				3.9830002784729004,
				0.24000002443790436,
				0.02903420478105545
			],
			"min":[
				0.04500000551342964,
				-0.24000002443790436,
				-0.7114126086235046
			],
			"type":"VEC3"
		},
		{
			"bufferView":1,
			"componentType":5126,
			"count":9934,
			"type":"VEC3"
		},
		{
			"bufferView":2,
			"componentType":5126,
			"count":9934,
			"type":"VEC2"
		},
		{
			"bufferView":3,
			"componentType":5123,
			"count":49980,
			"type":"SCALAR"
		}
	],
	"bufferViews":[
		{
			"buffer":0,
			"byteLength":119208,
			"byteOffset":0,
			"target":34962
		},
		{
			"buffer":0,
			"byteLength":119208,
			"byteOffset":119208,
			"target":34962
		},
		{
			"buffer":0,
			"byteLength":79472,
			"byteOffset":238416,
			"target":34962
		},
		{
			"buffer":0,
			"byteLength":99960,
			"byteOffset":317888,
			"target":34963
		}
	],
	"buffers":[
		{
			"byteLength":417848,
			"uri":"data:application/octet-stream;base64,"
		}
	]
}
