{
	"asset":{
		"generator":"Khronos glTF Blender I/O v3.6.27",
		"version":"2.0"
	},
	"scene":0,
	"scenes":[
		{
			"name":"Scene",
			"nodes":[
				0
			]
		}
	],
	"nodes":[
		{
			"mesh":0,
			"name":"Text",
			"rotation":[
				0.7071068286895752,
				0,
				0,
				0.7071068286895752
			]
		}
	],
	"materials":[
		{
			"doubleSided":true,
			"name":"la musculation",
			"pbrMetallicRoughness":{
				"baseColorFactor":[
					0.04297275468707085,
					0.7075947523117065,
					0.16609738767147064,
					20
				],
				"metallicFactor":0,
				"roughnessFactor":0.5
			}
		}
	],
	"meshes":[
		{
			"name":"Text",
			"primitives":[
				{
					"attributes":{
						"POSITION":0,
						"NORMAL":1,
						"TEXCOORD_0":2
					},
					"indices":3,
					"material":0
				}
			]
		}
	],
	"accessors":[
		{
			"bufferView":0,
			"componentType":5126,
			"count":15187,
			"max":[
				5.7270002365112305,
				0.2200000137090683,
				0.02903420478105545
			],
			"min":[
				0.04500000551342964,
				-0.2200000137090683,
				-0.7020000219345093
			],
			"type":"VEC3"
		},
		{
			"bufferView":1,
			"componentType":5126,
			"count":15187,
			"type":"VEC3"
		},
		{
			"bufferView":2,
			"componentType":5126,
			"count":15187,
			"type":"VEC2"
		},
		{
			"bufferView":3,
			"componentType":5123,
			"count":76908,
			"type":"SCALAR"
		}
	],
	"bufferViews":[
		{
			"buffer":0,
			"byteLength":182244,
			"byteOffset":0,
			"target":34962
		},
		{
			"buffer":0,
			"byteLength":182244,
			"byteOffset":182244,
			"target":34962
		},
		{
			"buffer":0,
			"byteLength":121496,
			"byteOffset":364488,
			"target":34962
		},
		{
			"buffer":0,
			"byteLength":153816,
			"byteOffset":485984,
			"target":34963
		}
	],
	"buffers":[
		{
			"byteLength":639800,
			"uri":"data:application/octet-stream;base64,"
		}
	]
}
