{
	"asset":{
		"generator":"Khronos glTF Blender I/O v3.6.27",
		"version":"2.0"
	},
	"scene":0,
	"scenes":[
		{
			"name":"Scene",
			"nodes":[
				0
			]
		}
	],
	"nodes":[
		{
			"mesh":0,
			"name":"Text",
			"rotation":[
				0.7071068286895752,
				0,
				0,
				0.7071068286895752
			]
		}
	],
	"materials":[
		{
			"doubleSided":true,
			"name":"la randonn\u00e9e",
			"pbrMetallicRoughness":{
				"baseColorFactor":[
					0.705420970916748,
					0.6504322290420532,
					0.0803297758102417,
					20
				],
				"metallicFactor":0,
				"roughnessFactor":0.5
			}
		}
	],
	"meshes":[
		{
			"name":"Text",
			"primitives":[
				{
					"attributes":{
						"POSITION":0,
						"NORMAL":1,
						"TEXCOORD_0":2
					},
					"indices":3,
					"material":0
				}
			]
		}
	],
	"accessors":[
		{
			"bufferView":0,
			"componentType":5126,
			"count":13578,
			"max":[
				5.25480318069458,
				0.2200000137090683,
				0.02903420478105545
			],
			"min":[
				0.04500000551342964,
				-0.2200000137090683,
				-0.7020000219345093
			],
			"type":"VEC3"
		},
		{
			"bufferView":1,
			"componentType":5126,
			"count":13578,
			"type":"VEC3"
		},
		{
			"bufferView":2,
			"componentType":5126,
			"count":13578,
			"type":"VEC2"
		},
		{
			"bufferView":3,
			"componentType":5123,
			"count":68616,
			"type":"SCALAR"
		}
	],
	"bufferViews":[
		{
			"buffer":0,
			"byteLength":162936,
			"byteOffset":0,
			"target":34962
		},
		{
			"buffer":0,
			"byteLength":162936,
			"byteOffset":162936,
			"target":34962
		},
		{
			"buffer":0,
			"byteLength":108624,
			"byteOffset":325872,
			"target":34962
		},
		{
			"buffer":0,
			"byteLength":137232,
			"byteOffset":434496,
			"target":34963
		}
	],
	"buffers":[
		{
			"byteLength":571728,
			"uri":"data:application/octet-stream;base64,"
		}
	]
}
