{
	"asset":{
		"generator":"Khronos glTF Blender I/O v3.6.27",
		"version":"2.0"
	},
	"scene":0,
	"scenes":[
		{
			"name":"Scene",
			"nodes":[
				0
			]
		}
	],
	"nodes":[
		{
			"mesh":0,
			"name":"Text",
			"rotation":[
				0.7071068286895752,
				0,
				0,
				0.7071068286895752
			]
		}
	],
	"materials":[
		{
			"doubleSided":true,
			"name":"Material.001",
			"pbrMetallicRoughness":{
				"baseColorFactor":[
					0.011526908725500107,
					0.24112695455551147,
					0.8045616745948792,
					10
				],
				"metallicFactor":0,
				"roughnessFactor":0.5
			}
		}
	],
	"meshes":[
		{
			"name":"Text",
			"primitives":[
				{
					"attributes":{
						"POSITION":0,
						"NORMAL":1,
						"TEXCOORD_0":2
					},
					"indices":3,
					"material":0
				}
			]
		}
	],
	"accessors":[
		{
			"bufferView":0,
			"componentType":5126,
			"count":12872,
			"max":[
				4.445000171661377,
				0.16999998688697815,
				0.02903420478105545
			],
			"min":[
				0.05400000140070915,
				-0.16999998688697815,
				-0.7020000219345093
			],
			"type":"VEC3"
		},
		{
			"bufferView":1,
			"componentType":5126,
			"count":12872,
			"type":"VEC3"
		},
		{
			"bufferView":2,
			"componentType":5126,
			"count":12872,
			"type":"VEC2"
		},
		{
			"bufferView":3,
			"componentType":5123,
			"count":65148,
			"type":"SCALAR"
		}
	],
	"bufferViews":[
		{
			"buffer":0,
			"byteLength":154464,
			"byteOffset":0,
			"target":34962
		},
		{
			"buffer":0,
			"byteLength":154464,
			"byteOffset":154464,
			"target":34962
		},
		{
			"buffer":0,
			"byteLength":102976,
			"byteOffset":308928,
			"target":34962
		},
		{
			"buffer":0,
			"byteLength":130296,
			"byteOffset":411904,
			"target":34963
		}
	],
	"buffers":[
		{
			"byteLength":542200,
			"uri":"data:application/octet-stream;base64,"
		}
	]
}
