{
	"asset":{
		"generator":"Khronos glTF Blender I/O v3.6.27",
		"version":"2.0"
	},
	"scene":0,
	"scenes":[
		{
			"name":"Scene",
			"nodes":[
				0
			]
		}
	],
	"nodes":[
		{
			"mesh":0,
			"name":"Text",
			"rotation":[
				0.7071068286895752,
				0,
				0,
				0.7071068286895752
			]
		}
	],
	"materials":[
		{
			"doubleSided":true,
			"name":"Material.001",
			"pbrMetallicRoughness":{
				"baseColorFactor":[
					0.011526908725500107,
					0.24112695455551147,
					0.8045616745948792,
					10
				],
				"metallicFactor":0,
				"roughnessFactor":0.5
			}
		}
	],
	"meshes":[
		{
			"name":"Text",
			"primitives":[
				{
					"attributes":{
						"POSITION":0,
						"NORMAL":1,
						"TEXCOORD_0":2
					},
					"indices":3,
					"material":0
				}
			]
		}
	],
	"accessors":[
		{
			"bufferView":0,
			"componentType":5126,
			"count":13204,
			"max":[
				3.963803291320801,
				0.16999998688697815,
				0.2500137388706207
			],
			"min":[
				0.05400000140070915,
				-0.16999998688697815,
				-0.7020000219345093
			],
			"type":"VEC3"
		},
		{
			"bufferView":1,
			"componentType":5126,
			"count":13204,
			"type":"VEC3"
		},
		{
			"bufferView":2,
			"componentType":5126,
			"count":13204,
			"type":"VEC2"
		},
		{
			"bufferView":3,
			"componentType":5123,
			"count":66900,
			"type":"SCALAR"
		}
	],
	"bufferViews":[
		{
			"buffer":0,
			"byteLength":158448,
			"byteOffset":0,
			"target":34962
		},
		{
			"buffer":0,
			"byteLength":158448,
			"byteOffset":158448,
			"target":34962
		},
		{
			"buffer":0,
			"byteLength":105632,
			"byteOffset":316896,
			"target":34962
		},
		{
			"buffer":0,
			"byteLength":133800,
			"byteOffset":422528,
			"target":34963
		}
	],
	"buffers":[
		{
			"byteLength":556328,
			"uri":"data:application/octet-stream;base64,"
		}
	]
}
