{
	"asset":{
		"generator":"Khronos glTF Blender I/O v3.6.27",
		"version":"2.0"
	},
	"scene":0,
	"scenes":[
		{
			"name":"Scene",
			"nodes":[
				2
			]
		}
	],
	"nodes":[
		{
			"mesh":0,
			"name":"Object_2",
			"translation":[
				0,
				-7.845998879929539e-06,
				0
			]
		},
		{
			"children":[
				0
			],
			"name":"planet_lava.obj.cleaner.materialmerger.gles",
			"translation":[
				-57.5,
				-62.500003814697266,
				8.000000953674316
			]
		},
		{
			"children":[
				1
			],
			"name":"Sketchfab_model",
			"rotation":[
				-0.6908079385757446,
				-0.1509450227022171,
				0.15094499289989471,
				0.6908079385757446
			],
			"translation":[
				26.114089965820312,
				5.487552642822266,
				0
			]
		}
	],
	"animations":[
		{
			"channels":[
				{
					"sampler":0,
					"target":{
						"node":2,
						"path":"translation"
					}
				},
				{
					"sampler":1,
					"target":{
						"node":2,
						"path":"rotation"
					}
				},
				{
					"sampler":2,
					"target":{
						"node":2,
						"path":"scale"
					}
				}
			],
			"name":"Sketchfab_modelAction",
			"samplers":[
				{
					"input":4,
					"interpolation":"STEP",
					"output":5
				},
				{
					"input":6,
					"interpolation":"LINEAR",
					"output":7
				},
				{
					"input":4,
					"interpolation":"STEP",
					"output":8
				}
			]
		},
		{
			"channels":[
				{
					"sampler":0,
					"target":{
						"node":1,
						"path":"translation"
					}
				},
				{
					"sampler":1,
					"target":{
						"node":1,
						"path":"rotation"
					}
				},
				{
					"sampler":2,
					"target":{
						"node":1,
						"path":"scale"
					}
				}
			],
			"name":"planet_lava.obj.cleaner.materialmerger.glesAction",
			"samplers":[
				{
					"input":4,
					"interpolation":"LINEAR",
					"output":9
				},
				{
					"input":4,
					"interpolation":"LINEAR",
					"output":10
				},
				{
					"input":4,
					"interpolation":"LINEAR",
					"output":11
				}
			]
		},
		{
			"channels":[
				{
					"sampler":0,
					"target":{
						"node":0,
						"path":"translation"
					}
				},
				{
					"sampler":1,
					"target":{
						"node":0,
						"path":"rotation"
					}
				},
				{
					"sampler":2,
					"target":{
						"node":0,
						"path":"scale"
					}
				}
			],
			"name":"Object_2Action",
			"samplers":[
				{
					"input":4,
					"interpolation":"LINEAR",
					"output":12
				},
				{
					"input":4,
					"interpolation":"LINEAR",
					"output":13
				},
				{
					"input":4,
					"interpolation":"LINEAR",
					"output":14
				}
			]
		}
	],
	"materials":[
		{
			"alphaMode":"BLEND",
			"emissiveFactor":[
				0.6000000238418579,
				0.6000000238418579,
				0.6000000238418579
			],
			"emissiveTexture":{
				"index":0
			},
			"name":"palette",
			"pbrMetallicRoughness":{
				"baseColorTexture":{
					"index":1
				},
				"metallicFactor":0,
				"roughnessFactor":0.6000000238418579
			}
		}
	],
	"meshes":[
		{
			"name":"Object_0",
			"primitives":[
				{
					"attributes":{
						"POSITION":0,
						"NORMAL":1,
						"TEXCOORD_0":2
					},
					"indices":3,
					"material":0
				}
			]
		}
	],
	"textures":[
		{
			"sampler":0,
			"source":0
		},
		{
			"sampler":0,
			"source":1
		}
	],
	"images":[
		{
			"bufferView":4,
			"mimeType":"image/png",
			"name":"palette_emissive"
		},
		{
			"bufferView":5,
			"mimeType":"image/png",
			"name":"palette_baseColor"
		}
	],
	"accessors":[
		{
			"bufferView":0,
			"componentType":5126,
			"count":41771,
			"max":[
				116,
				119,
				109
			],
			"min":[
				0,
				0,
				0
			],
			"type":"VEC3"
		},
		{
			"bufferView":1,
			"componentType":5126,
			"count":41771,
			"type":"VEC3"
		},
		{
			"bufferView":2,
			"componentType":5126,
			"count":41771,
			"type":"VEC2"
		},
		{
			"bufferView":3,
			"componentType":5123,
			"count":79494,
			"type":"SCALAR"
		},
		{
			"bufferView":6,
			"componentType":5126,
			"count":2,
			"max":[
				7.541666666666667
			],
			"min":[
				0.041666666666666664
			],
			"type":"SCALAR"
		},
		{
			"bufferView":7,
			"componentType":5126,
			"count":2,
			"type":"VEC3"
		},
		{
			"bufferView":8,
			"componentType":5126,
			"count":181,
			"max":[
				7.541666666666667
			],
			"min":[
				0.041666666666666664
			],
			"type":"SCALAR"
		},
		{
			"bufferView":9,
			"componentType":5126,
			"count":181,
			"type":"VEC4"
		},
		{
			"bufferView":10,
			"componentType":5126,
			"count":2,
			"type":"VEC3"
		},
		{
			"bufferView":11,
			"componentType":5126,
			"count":2,
			"type":"VEC3"
		},
		{
			"bufferView":12,
			"componentType":5126,
			"count":2,
			"type":"VEC4"
		},
		{
			"bufferView":13,
			"componentType":5126,
			"count":2,
			"type":"VEC3"
		},
		{
			"bufferView":14,
			"componentType":5126,
			"count":2,
			"type":"VEC3"
		},
		{
			"bufferView":15,
			"componentType":5126,
			"count":2,
			"type":"VEC4"
		},
		{
			"bufferView":16,
			"componentType":5126,
			"count":2,
			"type":"VEC3"
		}
	],
	"bufferViews":[
		{
			"buffer":0,
			"byteLength":501252,
			"byteOffset":0,
			"target":34962
		},
		{
			"buffer":0,
			"byteLength":501252,
			"byteOffset":501252,
			"target":34962
		},
		{
			"buffer":0,
			"byteLength":334168,
			"byteOffset":1002504,
			"target":34962
		},
		{
			"buffer":0,
			"byteLength":158988,
			"byteOffset":1336672,
			"target":34963
		},
		{
			"buffer":0,
			"byteLength":100,
			"byteOffset":1495660
		},
		{
			"buffer":0,
			"byteLength":547,
			"byteOffset":1495760
		},
		{
			"buffer":0,
			"byteLength":8,
			"byteOffset":1496308
		},
		{
			"buffer":0,
			"byteLength":24,
			"byteOffset":1496316
		},
		{
			"buffer":0,
			"byteLength":724,
			"byteOffset":1496340
		},
		{
			"buffer":0,
			"byteLength":2896,
			"byteOffset":1497064
		},
		{
			"buffer":0,
			"byteLength":24,
			"byteOffset":1499960
		},
		{
			"buffer":0,
			"byteLength":24,
			"byteOffset":1499984
		},
		{
			"buffer":0,
			"byteLength":32,
			"byteOffset":1500008
		},
		{
			"buffer":0,
			"byteLength":24,
			"byteOffset":1500040
		},
		{
			"buffer":0,
			"byteLength":24,
			"byteOffset":1500064
		},
		{
			"buffer":0,
			"byteLength":32,
			"byteOffset":1500088
		},
		{
			"buffer":0,
			"byteLength":24,
			"byteOffset":1500120
		}
	],
	"samplers":[
		{
			"magFilter":9729,
			"minFilter":9987
		}
	],
	"buffers":[
		{
			"byteLength":1500144,
			"uri":"data:application/octet-stream;base64,"
		}
	]
}
