{
	"asset":{
		"generator":"Khronos glTF Blender I/O v3.5.30",
		"version":"2.0"
	},
	"scene":0,
	"scenes":[
		{
			"name":"Scene",
			"nodes":[
				7
			]
		}
	],
	"nodes":[
		{
			"name":"Bone"
		},
		{
			"name":"Bone.001"
		},
		{
			"name":"Bone.002",
			"rotation":[
				-0.8654159307479858,
				-6.157814330057937e-15,
				0.5010541677474976,
				7.805642354696829e-08
			],
			"translation":[
				-8.742277657347586e-08,
				-2,
				-1.5099580252808664e-07
			]
		},
		{
			"name":"Bone.003",
			"rotation":[
				0.6119415760040283,
				-0.3542989492416382,
				-0.3542989194393158,
				0.6119411587715149
			],
			"translation":[
				-4.3711398944878965e-08,
				-1.000000238418579,
				1.007470726966858
			]
		},
		{
			"name":"Bone.004",
			"rotation":[
				-0.6464763283729553,
				0.2864758372306824,
				-0.2864757776260376,
				0.6464763283729553
			],
			"scale":[
				0.9999999403953552,
				1,
				0.9999999403953552
			],
			"translation":[
				-4.371138473402425e-08,
				-0.9999999403953552,
				-0.9813368320465088
			]
		},
		{
			"name":"neutral_bone",
			"rotation":[
				-0.7071067690849304,
				0,
				0,
				0.7071067690849304
			]
		},
		{
			"mesh":0,
			"name":"Plane",
			"skin":0
		},
		{
			"children":[
				6,
				0,
				1,
				2,
				3,
				4,
				5
			],
			"name":"Armature",
			"rotation":[
				0,
				0,
				0.7071068286895752,
				0.7071068286895752
			],
			"translation":[
				-1,
				0,
				0
			]
		}
	],
	"animations":[
		{
			"channels":[
				{
					"sampler":0,
					"target":{
						"node":0,
						"path":"translation"
					}
				},
				{
					"sampler":1,
					"target":{
						"node":0,
						"path":"rotation"
					}
				},
				{
					"sampler":2,
					"target":{
						"node":0,
						"path":"scale"
					}
				},
				{
					"sampler":3,
					"target":{
						"node":1,
						"path":"translation"
					}
				},
				{
					"sampler":4,
					"target":{
						"node":1,
						"path":"rotation"
					}
				},
				{
					"sampler":5,
					"target":{
						"node":1,
						"path":"scale"
					}
				},
				{
					"sampler":6,
					"target":{
						"node":2,
						"path":"translation"
					}
				},
				{
					"sampler":7,
					"target":{
						"node":2,
						"path":"rotation"
					}
				},
				{
					"sampler":8,
					"target":{
						"node":2,
						"path":"scale"
					}
				},
				{
					"sampler":9,
					"target":{
						"node":3,
						"path":"translation"
					}
				},
				{
					"sampler":10,
					"target":{
						"node":3,
						"path":"rotation"
					}
				},
				{
					"sampler":11,
					"target":{
						"node":3,
						"path":"scale"
					}
				},
				{
					"sampler":12,
					"target":{
						"node":4,
						"path":"translation"
					}
				},
				{
					"sampler":13,
					"target":{
						"node":4,
						"path":"rotation"
					}
				},
				{
					"sampler":14,
					"target":{
						"node":4,
						"path":"scale"
					}
				}
			],
			"name":"ArmatureAction",
			"samplers":[
				{
					"input":7,
					"interpolation":"LINEAR",
					"output":8
				},
				{
					"input":7,
					"interpolation":"LINEAR",
					"output":9
				},
				{
					"input":7,
					"interpolation":"LINEAR",
					"output":10
				},
				{
					"input":7,
					"interpolation":"LINEAR",
					"output":11
				},
				{
					"input":7,
					"interpolation":"LINEAR",
					"output":12
				},
				{
					"input":7,
					"interpolation":"LINEAR",
					"output":13
				},
				{
					"input":7,
					"interpolation":"LINEAR",
					"output":14
				},
				{
					"input":7,
					"interpolation":"LINEAR",
					"output":15
				},
				{
					"input":7,
					"interpolation":"LINEAR",
					"output":16
				},
				{
					"input":7,
					"interpolation":"LINEAR",
					"output":17
				},
				{
					"input":7,
					"interpolation":"LINEAR",
					"output":18
				},
				{
					"input":7,
					"interpolation":"LINEAR",
					"output":19
				},
				{
					"input":7,
					"interpolation":"LINEAR",
					"output":20
				},
				{
					"input":7,
					"interpolation":"LINEAR",
					"output":21
				},
				{
					"input":7,
					"interpolation":"LINEAR",
					"output":22
				}
			]
		}
	],
	"meshes":[
		{
			"name":"Plane",
			"primitives":[
				{
					"attributes":{
						"POSITION":0,
						"TEXCOORD_0":1,
						"NORMAL":2,
						"JOINTS_0":3,
						"WEIGHTS_0":4
					},
					"indices":5
				}
			]
		}
	],
	"skins":[
		{
			"inverseBindMatrices":6,
			"joints":[
				0,
				1,
				2,
				3,
				4,
				5
			],
			"name":"Armature"
		}
	],
	"accessors":[
		{
			"bufferView":0,
			"componentType":5126,
			"count":10,
			"max":[
				3,
				0,
				2.7319998741149902
			],
			"min":[
				-3,
				0,
				-2.7319998741149902
			],
			"type":"VEC3"
		},
		{
			"bufferView":1,
			"componentType":5126,
			"count":10,
			"type":"VEC2"
		},
		{
			"bufferView":2,
			"componentType":5126,
			"count":10,
			"type":"VEC3"
		},
		{
			"bufferView":3,
			"componentType":5121,
			"count":10,
			"type":"VEC4"
		},
		{
			"bufferView":4,
			"componentType":5126,
			"count":10,
			"type":"VEC4"
		},
		{
			"bufferView":5,
			"componentType":5123,
			"count":24,
			"type":"SCALAR"
		},
		{
			"bufferView":6,
			"componentType":5126,
			"count":6,
			"type":"MAT4"
		},
		{
			"bufferView":7,
			"componentType":5126,
			"count":100,
			"max":[
				4.166666666666667
			],
			"min":[
				0.041666666666666664
			],
			"type":"SCALAR"
		},
		{
			"bufferView":8,
			"componentType":5126,
			"count":100,
			"type":"VEC3"
		},
		{
			"bufferView":9,
			"componentType":5126,
			"count":100,
			"type":"VEC4"
		},
		{
			"bufferView":10,
			"componentType":5126,
			"count":100,
			"type":"VEC3"
		},
		{
			"bufferView":11,
			"componentType":5126,
			"count":100,
			"type":"VEC3"
		},
		{
			"bufferView":12,
			"componentType":5126,
			"count":100,
			"type":"VEC4"
		},
		{
			"bufferView":13,
			"componentType":5126,
			"count":100,
			"type":"VEC3"
		},
		{
			"bufferView":14,
			"componentType":5126,
			"count":100,
			"type":"VEC3"
		},
		{
			"bufferView":15,
			"componentType":5126,
			"count":100,
			"type":"VEC4"
		},
		{
			"bufferView":16,
			"componentType":5126,
			"count":100,
			"type":"VEC3"
		},
		{
			"bufferView":17,
			"componentType":5126,
			"count":100,
			"type":"VEC3"
		},
		{
			"bufferView":18,
			"componentType":5126,
			"count":100,
			"type":"VEC4"
		},
		{
			"bufferView":19,
			"componentType":5126,
			"count":100,
			"type":"VEC3"
		},
		{
			"bufferView":20,
			"componentType":5126,
			"count":100,
			"type":"VEC3"
		},
		{
			"bufferView":21,
			"componentType":5126,
			"count":100,
			"type":"VEC4"
		},
		{
			"bufferView":22,
			"componentType":5126,
			"count":100,
			"type":"VEC3"
		}
	],
	"bufferViews":[
		{
			"buffer":0,
			"byteLength":120,
			"byteOffset":0,
			"target":34962
		},
		{
			"buffer":0,
			"byteLength":80,
			"byteOffset":120,
			"target":34962
		},
		{
			"buffer":0,
			"byteLength":120,
			"byteOffset":200,
			"target":34962
		},
		{
			"buffer":0,
			"byteLength":40,
			"byteOffset":320,
			"target":34962
		},
		{
			"buffer":0,
			"byteLength":160,
			"byteOffset":360,
			"target":34962
		},
		{
			"buffer":0,
			"byteLength":48,
			"byteOffset":520,
			"target":34963
		},
		{
			"buffer":0,
			"byteLength":384,
			"byteOffset":568
		},
		{
			"buffer":0,
			"byteLength":400,
			"byteOffset":952
		},
		{
			"buffer":0,
			"byteLength":1200,
			"byteOffset":1352
		},
		{
			"buffer":0,
			"byteLength":1600,
			"byteOffset":2552
		},
		{
			"buffer":0,
			"byteLength":1200,
			"byteOffset":4152
		},
		{
			"buffer":0,
			"byteLength":1200,
			"byteOffset":5352
		},
		{
			"buffer":0,
			"byteLength":1600,
			"byteOffset":6552
		},
		{
			"buffer":0,
			"byteLength":1200,
			"byteOffset":8152
		},
		{
			"buffer":0,
			"byteLength":1200,
			"byteOffset":9352
		},
		{
			"buffer":0,
			"byteLength":1600,
			"byteOffset":10552
		},
		{
			"buffer":0,
			"byteLength":1200,
			"byteOffset":12152
		},
		{
			"buffer":0,
			"byteLength":1200,
			"byteOffset":13352
		},
		{
			"buffer":0,
			"byteLength":1600,
			"byteOffset":14552
		},
		{
			"buffer":0,
			"byteLength":1200,
			"byteOffset":16152
		},
		{
			"buffer":0,
			"byteLength":1200,
			"byteOffset":17352
		},
		{
			"buffer":0,
			"byteLength":1600,
			"byteOffset":18552
		},
		{
			"buffer":0,
			"byteLength":1200,
			"byteOffset":20152
		}
	],
	"buffers":[
		{
			"byteLength":21352,
			"uri":"cylinder_begin.bin"
		}
	]
}
